<?xml version="1.0" encoding="UTF-8" standalone="no"?>
<svg
   version="1.1"
   width="950"
   height="450"
   id="svg456"
   xmlns="http://www.w3.org/2000/svg"
   xmlns:svg="http://www.w3.org/2000/svg">
  <defs
     id="defs234">
    <clipPath
       id="GtvryHKtnqRu">
      <path
         fill="none"
         stroke="none"
         d="M 0,0 H 1033 V 905 H 0 Z"
         id="path231" />
    </clipPath>
    <clipPath
       clipPathUnits="userSpaceOnUse"
       id="clipPath861">
      <rect
         style="fill:#000000"
         id="rect863"
         width="948.24969"
         height="450.87814"
         x="0"
         y="198.94862" />
    </clipPath>
  </defs>
  <g
     id="g743"
     clip-path="url(#clipPath861)"
     transform="translate(0,-198.94862)">
    <g
       clip-path="url(#GtvryHKtnqRu)"
       id="g454">
      <g
         id="g452">
        <rect
           fill="#ffffff"
           stroke="none"
           x="0"
           y="0"
           width="1033"
           height="905"
           id="rect236" />
        <path
           fill="none"
           stroke="#616161"
           d="m 66.5,352.5 h 50"
           stroke-opacity="0.8"
           stroke-linejoin="round"
           stroke-miterlimit="10"
           stroke-width="2.5"
           stroke-dasharray="10.5, 8"
           id="path238" />
        <path
           fill="none"
           stroke="#616161"
           d="m 316.5,552.5 h -150"
           stroke-opacity="0.8"
           stroke-linejoin="round"
           stroke-miterlimit="10"
           stroke-width="2.5"
           stroke-dasharray="2.5, 3"
           id="path240" />
        <path
           fill="none"
           stroke="#616161"
           d="m 316.5,352.5 h 50"
           stroke-opacity="0.8"
           stroke-linejoin="round"
           stroke-miterlimit="10"
           stroke-width="2.5"
           stroke-dasharray="10.5, 8"
           id="path242" />
        <path
           fill="none"
           stroke="#616161"
           d="m 316.5,552.5 h 50"
           stroke-opacity="0.8"
           stroke-linejoin="round"
           stroke-miterlimit="10"
           stroke-width="2.5"
           stroke-dasharray="10.5, 8"
           id="path244" />
        <path
           fill="none"
           stroke="#616161"
           d="m 366.5,352.5 h 100"
           stroke-opacity="0.8"
           stroke-linejoin="round"
           stroke-miterlimit="10"
           stroke-width="2.5"
           stroke-dasharray="6.5, 4"
           id="path246" />
        <path
           fill="none"
           stroke="#616161"
           d="m 366.5,552.5 h 100"
           stroke-opacity="0.8"
           stroke-linejoin="round"
           stroke-miterlimit="10"
           stroke-width="2.5"
           stroke-dasharray="6.5, 4"
           id="path248" />
        <path
           fill="none"
           stroke="#616161"
           d="m 316.5,352.5 h -150"
           stroke-opacity="0.8"
           stroke-linejoin="round"
           stroke-miterlimit="10"
           stroke-width="2.5"
           stroke-dasharray="2.5, 3"
           id="path250" />
        <path
           fill="none"
           stroke="#616161"
           d="m 566.5,352.5 h 150"
           stroke-opacity="0.8"
           stroke-linejoin="round"
           stroke-miterlimit="10"
           stroke-width="2.5"
           stroke-dasharray="2.5, 3"
           id="path252" />
        <path
           fill="none"
           stroke="#616161"
           d="m 716.5,352.5 150,-50"
           stroke-opacity="0.8"
           stroke-linejoin="round"
           stroke-miterlimit="10"
           stroke-width="2.5"
           stroke-dasharray="2.5, 3"
           id="path254" />
        <path
           fill="none"
           stroke="#616161"
           d="m 866.5,302.5 -300,50"
           stroke-opacity="0.8"
           stroke-linejoin="round"
           stroke-miterlimit="10"
           stroke-width="2.5"
           stroke-dasharray="10.5, 4, 2.5, 4"
           id="path256" />
        <path
           fill="none"
           stroke="#616161"
           d="m 716.5,352.5 h 50"
           stroke-opacity="0.8"
           stroke-linejoin="round"
           stroke-miterlimit="10"
           stroke-width="2.5"
           stroke-dasharray="10.5, 8"
           id="path258" />
        <path
           fill="none"
           stroke="#616161"
           d="m 766.5,352.5 100,-50"
           stroke-opacity="0.8"
           stroke-linecap="round"
           stroke-linejoin="round"
           stroke-miterlimit="10"
           stroke-width="2.5"
           id="path260" />
        <path
           fill="none"
           stroke="#616161"
           d="m 566.5,552.5 h 150"
           stroke-opacity="0.8"
           stroke-linejoin="round"
           stroke-miterlimit="10"
           stroke-width="2.5"
           stroke-dasharray="2.5, 3"
           id="path262" />
        <path
           fill="none"
           stroke="#616161"
           d="m 716.5,552.5 150,-50"
           stroke-opacity="0.8"
           stroke-linejoin="round"
           stroke-miterlimit="10"
           stroke-width="2.5"
           stroke-dasharray="2.5, 3"
           id="path264" />
        <path
           fill="none"
           stroke="#616161"
           d="m 866.5,502.5 -300,50"
           stroke-opacity="0.8"
           stroke-linejoin="round"
           stroke-miterlimit="10"
           stroke-width="2.5"
           stroke-dasharray="10.5, 4, 2.5, 4"
           id="path266" />
        <path
           fill="none"
           stroke="#616161"
           d="m 716.5,552.5 h 50"
           stroke-opacity="0.8"
           stroke-linejoin="round"
           stroke-miterlimit="10"
           stroke-width="2.5"
           stroke-dasharray="10.5, 8"
           id="path268" />
        <path
           fill="none"
           stroke="#616161"
           d="m 766.5,552.5 100,-50"
           stroke-opacity="0.8"
           stroke-linecap="round"
           stroke-linejoin="round"
           stroke-miterlimit="10"
           stroke-width="2.5"
           id="path270" />
        <path
           fill="#1565c0"
           stroke="none"
           paint-order="stroke fill markers"
           d="m 71.5,352.5 c 0,2.76142 -2.238576,5 -5,5 -2.761424,0 -5,-2.23858 -5,-5 0,-2.76142 2.238576,-5 5,-5 2.761424,0 5,2.23858 5,5 z"
           id="path272" />
        <path
           fill="none"
           stroke="#000000"
           d="m 71.5,352.5 c 0,2.76142 -2.238576,5 -5,5 -2.761424,0 -5,-2.23858 -5,-5 0,-2.76142 2.238576,-5 5,-5 2.761424,0 5,2.23858 5,5 z"
           stroke-opacity="1"
           stroke-linecap="round"
           stroke-linejoin="round"
           stroke-miterlimit="10"
           id="path274" />
        <text
           fill="#1565c0"
           stroke="none"
           x="71"
           y="342"
           id="text276">A</text>
        <text
           fill="none"
           stroke="#ffffff"
           x="71"
           y="342"
           stroke-opacity="1"
           stroke-linejoin="bevel"
           stroke-miterlimit="10"
           stroke-width="3"
           id="text278">A</text>
        <text
           fill="#1565c0"
           stroke="none"
           x="71"
           y="342"
           id="text280">A</text>
        <path
           fill="#1565c0"
           stroke="none"
           paint-order="stroke fill markers"
           d="m 121.5,352.5 c 0,2.76142 -2.23858,5 -5,5 -2.76142,0 -5,-2.23858 -5,-5 0,-2.76142 2.23858,-5 5,-5 2.76142,0 5,2.23858 5,5 z"
           id="path282" />
        <path
           fill="none"
           stroke="#000000"
           d="m 121.5,352.5 c 0,2.76142 -2.23858,5 -5,5 -2.76142,0 -5,-2.23858 -5,-5 0,-2.76142 2.23858,-5 5,-5 2.76142,0 5,2.23858 5,5 z"
           stroke-opacity="1"
           stroke-linecap="round"
           stroke-linejoin="round"
           stroke-miterlimit="10"
           id="path284" />
        <text
           fill="#1565c0"
           stroke="none"
           x="121"
           y="342"
           id="text286">B</text>
        <text
           fill="none"
           stroke="#ffffff"
           x="121"
           y="342"
           stroke-opacity="1"
           stroke-linejoin="bevel"
           stroke-miterlimit="10"
           stroke-width="3"
           id="text288">B</text>
        <text
           fill="#1565c0"
           stroke="none"
           x="121"
           y="342"
           id="text290">B</text>
        <path
           fill="#1565c0"
           stroke="none"
           paint-order="stroke fill markers"
           d="m 321.5,352.5 c 0,2.76142 -2.23858,5 -5,5 -2.76142,0 -5,-2.23858 -5,-5 0,-2.76142 2.23858,-5 5,-5 2.76142,0 5,2.23858 5,5 z"
           id="path292" />
        <path
           fill="none"
           stroke="#000000"
           d="m 321.5,352.5 c 0,2.76142 -2.23858,5 -5,5 -2.76142,0 -5,-2.23858 -5,-5 0,-2.76142 2.23858,-5 5,-5 2.76142,0 5,2.23858 5,5 z"
           stroke-opacity="1"
           stroke-linecap="round"
           stroke-linejoin="round"
           stroke-miterlimit="10"
           id="path294" />
        <text
           fill="#1565c0"
           stroke="none"
           x="321"
           y="342"
           id="text296">C</text>
        <text
           fill="none"
           stroke="#ffffff"
           x="321"
           y="342"
           stroke-opacity="1"
           stroke-linejoin="bevel"
           stroke-miterlimit="10"
           stroke-width="3"
           id="text298">C</text>
        <text
           fill="#1565c0"
           stroke="none"
           x="321"
           y="342"
           id="text300">C</text>
        <path
           fill="#1565c0"
           stroke="none"
           paint-order="stroke fill markers"
           d="m 471.5,352.5 c 0,2.76142 -2.23858,5 -5,5 -2.76142,0 -5,-2.23858 -5,-5 0,-2.76142 2.23858,-5 5,-5 2.76142,0 5,2.23858 5,5 z"
           id="path302" />
        <path
           fill="none"
           stroke="#000000"
           d="m 471.5,352.5 c 0,2.76142 -2.23858,5 -5,5 -2.76142,0 -5,-2.23858 -5,-5 0,-2.76142 2.23858,-5 5,-5 2.76142,0 5,2.23858 5,5 z"
           stroke-opacity="1"
           stroke-linecap="round"
           stroke-linejoin="round"
           stroke-miterlimit="10"
           id="path304" />
        <text
           fill="#1565c0"
           stroke="none"
           x="471"
           y="342"
           id="text306">D</text>
        <text
           fill="none"
           stroke="#ffffff"
           x="471"
           y="342"
           stroke-opacity="1"
           stroke-linejoin="bevel"
           stroke-miterlimit="10"
           stroke-width="3"
           id="text308">D</text>
        <text
           fill="#1565c0"
           stroke="none"
           x="471"
           y="342"
           id="text310">D</text>
        <path
           fill="#1565c0"
           stroke="none"
           paint-order="stroke fill markers"
           d="m 321.5,552.5 c 0,2.76142 -2.23858,5 -5,5 -2.76142,0 -5,-2.23858 -5,-5 0,-2.76142 2.23858,-5 5,-5 2.76142,0 5,2.23858 5,5 z"
           id="path312" />
        <path
           fill="none"
           stroke="#000000"
           d="m 321.5,552.5 c 0,2.76142 -2.23858,5 -5,5 -2.76142,0 -5,-2.23858 -5,-5 0,-2.76142 2.23858,-5 5,-5 2.76142,0 5,2.23858 5,5 z"
           stroke-opacity="1"
           stroke-linecap="round"
           stroke-linejoin="round"
           stroke-miterlimit="10"
           id="path314" />
        <text
           fill="#1565c0"
           stroke="none"
           x="321"
           y="543"
           id="text316">E</text>
        <text
           fill="none"
           stroke="#ffffff"
           x="321"
           y="543"
           stroke-opacity="1"
           stroke-linejoin="bevel"
           stroke-miterlimit="10"
           stroke-width="3"
           id="text318">E</text>
        <text
           fill="#1565c0"
           stroke="none"
           x="321"
           y="543"
           id="text320">E</text>
        <path
           fill="#1565c0"
           stroke="none"
           paint-order="stroke fill markers"
           d="m 471.5,552.5 c 0,2.76142 -2.23858,5 -5,5 -2.76142,0 -5,-2.23858 -5,-5 0,-2.76142 2.23858,-5 5,-5 2.76142,0 5,2.23858 5,5 z"
           id="path322" />
        <path
           fill="none"
           stroke="#000000"
           d="m 471.5,552.5 c 0,2.76142 -2.23858,5 -5,5 -2.76142,0 -5,-2.23858 -5,-5 0,-2.76142 2.23858,-5 5,-5 2.76142,0 5,2.23858 5,5 z"
           stroke-opacity="1"
           stroke-linecap="round"
           stroke-linejoin="round"
           stroke-miterlimit="10"
           id="path324" />
        <text
           fill="#1565c0"
           stroke="none"
           x="471"
           y="543"
           id="text326">F</text>
        <text
           fill="none"
           stroke="#ffffff"
           x="471"
           y="543"
           stroke-opacity="1"
           stroke-linejoin="bevel"
           stroke-miterlimit="10"
           stroke-width="3"
           id="text328">F</text>
        <text
           fill="#1565c0"
           stroke="none"
           x="471"
           y="543"
           id="text330">F</text>
        <path
           fill="#1565c0"
           stroke="none"
           paint-order="stroke fill markers"
           d="m 171.5,552.5 c 0,2.76142 -2.23858,5 -5,5 -2.76142,0 -5,-2.23858 -5,-5 0,-2.76142 2.23858,-5 5,-5 2.76142,0 5,2.23858 5,5 z"
           id="path332" />
        <path
           fill="none"
           stroke="#000000"
           d="m 171.5,552.5 c 0,2.76142 -2.23858,5 -5,5 -2.76142,0 -5,-2.23858 -5,-5 0,-2.76142 2.23858,-5 5,-5 2.76142,0 5,2.23858 5,5 z"
           stroke-opacity="1"
           stroke-linecap="round"
           stroke-linejoin="round"
           stroke-miterlimit="10"
           id="path334" />
        <text
           fill="#1565c0"
           stroke="none"
           x="171"
           y="543"
           id="text336">P</text>
        <text
           fill="none"
           stroke="#ffffff"
           x="171"
           y="543"
           stroke-opacity="1"
           stroke-linejoin="bevel"
           stroke-miterlimit="10"
           stroke-width="3"
           id="text338">P</text>
        <text
           fill="#1565c0"
           stroke="none"
           x="171"
           y="543"
           id="text340">P</text>
        <path
           fill="#1565c0"
           stroke="none"
           paint-order="stroke fill markers"
           d="m 371.5,352.5 c 0,2.76142 -2.23858,5 -5,5 -2.76142,0 -5,-2.23858 -5,-5 0,-2.76142 2.23858,-5 5,-5 2.76142,0 5,2.23858 5,5 z"
           id="path342" />
        <path
           fill="none"
           stroke="#000000"
           d="m 371.5,352.5 c 0,2.76142 -2.23858,5 -5,5 -2.76142,0 -5,-2.23858 -5,-5 0,-2.76142 2.23858,-5 5,-5 2.76142,0 5,2.23858 5,5 z"
           stroke-opacity="1"
           stroke-linecap="round"
           stroke-linejoin="round"
           stroke-miterlimit="10"
           id="path344" />
        <text
           fill="#1565c0"
           stroke="none"
           x="371"
           y="342"
           id="text346">G</text>
        <text
           fill="none"
           stroke="#ffffff"
           x="371"
           y="342"
           stroke-opacity="1"
           stroke-linejoin="bevel"
           stroke-miterlimit="10"
           stroke-width="3"
           id="text348">G</text>
        <text
           fill="#1565c0"
           stroke="none"
           x="371"
           y="342"
           id="text350">G</text>
        <path
           fill="#1565c0"
           stroke="none"
           paint-order="stroke fill markers"
           d="m 371.5,552.5 c 0,2.76142 -2.23858,5 -5,5 -2.76142,0 -5,-2.23858 -5,-5 0,-2.76142 2.23858,-5 5,-5 2.76142,0 5,2.23858 5,5 z"
           id="path352" />
        <path
           fill="none"
           stroke="#000000"
           d="m 371.5,552.5 c 0,2.76142 -2.23858,5 -5,5 -2.76142,0 -5,-2.23858 -5,-5 0,-2.76142 2.23858,-5 5,-5 2.76142,0 5,2.23858 5,5 z"
           stroke-opacity="1"
           stroke-linecap="round"
           stroke-linejoin="round"
           stroke-miterlimit="10"
           id="path354" />
        <text
           fill="#1565c0"
           stroke="none"
           x="371"
           y="543"
           id="text356">H</text>
        <text
           fill="none"
           stroke="#ffffff"
           x="371"
           y="543"
           stroke-opacity="1"
           stroke-linejoin="bevel"
           stroke-miterlimit="10"
           stroke-width="3"
           id="text358">H</text>
        <text
           fill="#1565c0"
           stroke="none"
           x="371"
           y="543"
           id="text360">H</text>
        <path
           fill="#1565c0"
           stroke="none"
           paint-order="stroke fill markers"
           d="m 171.5,352.5 c 0,2.76142 -2.23858,5 -5,5 -2.76142,0 -5,-2.23858 -5,-5 0,-2.76142 2.23858,-5 5,-5 2.76142,0 5,2.23858 5,5 z"
           id="path362" />
        <path
           fill="none"
           stroke="#000000"
           d="m 171.5,352.5 c 0,2.76142 -2.23858,5 -5,5 -2.76142,0 -5,-2.23858 -5,-5 0,-2.76142 2.23858,-5 5,-5 2.76142,0 5,2.23858 5,5 z"
           stroke-opacity="1"
           stroke-linecap="round"
           stroke-linejoin="round"
           stroke-miterlimit="10"
           id="path364" />
        <text
           fill="#1565c0"
           stroke="none"
           x="171"
           y="342"
           id="text366">Q</text>
        <text
           fill="none"
           stroke="#ffffff"
           x="171"
           y="342"
           stroke-opacity="1"
           stroke-linejoin="bevel"
           stroke-miterlimit="10"
           stroke-width="3"
           id="text368">Q</text>
        <text
           fill="#1565c0"
           stroke="none"
           x="171"
           y="342"
           id="text370">Q</text>
        <path
           fill="#1565c0"
           stroke="none"
           paint-order="stroke fill markers"
           d="m 571.5,352.5 c 0,2.76142 -2.23858,5 -5,5 -2.76142,0 -5,-2.23858 -5,-5 0,-2.76142 2.23858,-5 5,-5 2.76142,0 5,2.23858 5,5 z"
           id="path372" />
        <path
           fill="none"
           stroke="#000000"
           d="m 571.5,352.5 c 0,2.76142 -2.23858,5 -5,5 -2.76142,0 -5,-2.23858 -5,-5 0,-2.76142 2.23858,-5 5,-5 2.76142,0 5,2.23858 5,5 z"
           stroke-opacity="1"
           stroke-linecap="round"
           stroke-linejoin="round"
           stroke-miterlimit="10"
           id="path374" />
        <text
           fill="#1565c0"
           stroke="none"
           x="571"
           y="342"
           id="text376">Q</text>
        <text
           fill="none"
           stroke="#ffffff"
           x="571"
           y="342"
           stroke-opacity="1"
           stroke-linejoin="bevel"
           stroke-miterlimit="10"
           stroke-width="3"
           id="text378">Q</text>
        <text
           fill="#1565c0"
           stroke="none"
           x="571"
           y="342"
           id="text380">Q</text>
        <path
           fill="#1565c0"
           stroke="none"
           paint-order="stroke fill markers"
           d="m 721.5,352.5 c 0,2.76142 -2.23858,5 -5,5 -2.76142,0 -5,-2.23858 -5,-5 0,-2.76142 2.23858,-5 5,-5 2.76142,0 5,2.23858 5,5 z"
           id="path382" />
        <path
           fill="none"
           stroke="#000000"
           d="m 721.5,352.5 c 0,2.76142 -2.23858,5 -5,5 -2.76142,0 -5,-2.23858 -5,-5 0,-2.76142 2.23858,-5 5,-5 2.76142,0 5,2.23858 5,5 z"
           stroke-opacity="1"
           stroke-linecap="round"
           stroke-linejoin="round"
           stroke-miterlimit="10"
           id="path384" />
        <text
           fill="#1565c0"
           stroke="none"
           x="691"
           y="382"
           id="text386">C</text>
        <text
           fill="none"
           stroke="#ffffff"
           x="691"
           y="382"
           stroke-opacity="1"
           stroke-linejoin="bevel"
           stroke-miterlimit="10"
           stroke-width="3"
           id="text388">C</text>
        <text
           fill="#1565c0"
           stroke="none"
           x="691"
           y="382"
           id="text390">C</text>
        <path
           fill="#1565c0"
           stroke="none"
           paint-order="stroke fill markers"
           d="m 871.5,302.5 c 0,2.76142 -2.23858,5 -5,5 -2.76142,0 -5,-2.23858 -5,-5 0,-2.76142 2.23858,-5 5,-5 2.76142,0 5,2.23858 5,5 z"
           id="path392" />
        <path
           fill="none"
           stroke="#000000"
           d="m 871.5,302.5 c 0,2.76142 -2.23858,5 -5,5 -2.76142,0 -5,-2.23858 -5,-5 0,-2.76142 2.23858,-5 5,-5 2.76142,0 5,2.23858 5,5 z"
           stroke-opacity="1"
           stroke-linecap="round"
           stroke-linejoin="round"
           stroke-miterlimit="10"
           id="path394" />
        <text
           fill="#1565c0"
           stroke="none"
           x="871"
           y="292"
           id="text396">D</text>
        <text
           fill="none"
           stroke="#ffffff"
           x="871"
           y="292"
           stroke-opacity="1"
           stroke-linejoin="bevel"
           stroke-miterlimit="10"
           stroke-width="3"
           id="text398">D</text>
        <text
           fill="#1565c0"
           stroke="none"
           x="871"
           y="292"
           id="text400">D</text>
        <path
           fill="#1565c0"
           stroke="none"
           paint-order="stroke fill markers"
           d="m 771.5,352.5 c 0,2.76142 -2.23858,5 -5,5 -2.76142,0 -5,-2.23858 -5,-5 0,-2.76142 2.23858,-5 5,-5 2.76142,0 5,2.23858 5,5 z"
           id="path402" />
        <path
           fill="none"
           stroke="#000000"
           d="m 771.5,352.5 c 0,2.76142 -2.23858,5 -5,5 -2.76142,0 -5,-2.23858 -5,-5 0,-2.76142 2.23858,-5 5,-5 2.76142,0 5,2.23858 5,5 z"
           stroke-opacity="1"
           stroke-linecap="round"
           stroke-linejoin="round"
           stroke-miterlimit="10"
           id="path404" />
        <text
           fill="#1565c0"
           stroke="none"
           x="778"
           y="377"
           id="text406">G</text>
        <text
           fill="none"
           stroke="#ffffff"
           x="778"
           y="377"
           stroke-opacity="1"
           stroke-linejoin="bevel"
           stroke-miterlimit="10"
           stroke-width="3"
           id="text408">G</text>
        <text
           fill="#1565c0"
           stroke="none"
           x="778"
           y="377"
           id="text410">G</text>
        <path
           fill="#1565c0"
           stroke="none"
           paint-order="stroke fill markers"
           d="m 571.5,552.5 c 0,2.76142 -2.23858,5 -5,5 -2.76142,0 -5,-2.23858 -5,-5 0,-2.76142 2.23858,-5 5,-5 2.76142,0 5,2.23858 5,5 z"
           id="path412" />
        <path
           fill="none"
           stroke="#000000"
           d="m 571.5,552.5 c 0,2.76142 -2.23858,5 -5,5 -2.76142,0 -5,-2.23858 -5,-5 0,-2.76142 2.23858,-5 5,-5 2.76142,0 5,2.23858 5,5 z"
           stroke-opacity="1"
           stroke-linecap="round"
           stroke-linejoin="round"
           stroke-miterlimit="10"
           id="path414" />
        <text
           fill="#1565c0"
           stroke="none"
           x="571"
           y="543"
           id="text416">P</text>
        <text
           fill="none"
           stroke="#ffffff"
           x="571"
           y="543"
           stroke-opacity="1"
           stroke-linejoin="bevel"
           stroke-miterlimit="10"
           stroke-width="3"
           id="text418">P</text>
        <text
           fill="#1565c0"
           stroke="none"
           x="571"
           y="543"
           id="text420">P</text>
        <path
           fill="#1565c0"
           stroke="none"
           paint-order="stroke fill markers"
           d="m 721.5,552.5 c 0,2.76142 -2.23858,5 -5,5 -2.76142,0 -5,-2.23858 -5,-5 0,-2.76142 2.23858,-5 5,-5 2.76142,0 5,2.23858 5,5 z"
           id="path422" />
        <path
           fill="none"
           stroke="#000000"
           d="m 721.5,552.5 c 0,2.76142 -2.23858,5 -5,5 -2.76142,0 -5,-2.23858 -5,-5 0,-2.76142 2.23858,-5 5,-5 2.76142,0 5,2.23858 5,5 z"
           stroke-opacity="1"
           stroke-linecap="round"
           stroke-linejoin="round"
           stroke-miterlimit="10"
           id="path424" />
        <text
           fill="#1565c0"
           stroke="none"
           x="690"
           y="579"
           id="text426">E</text>
        <text
           fill="none"
           stroke="#ffffff"
           x="690"
           y="579"
           stroke-opacity="1"
           stroke-linejoin="bevel"
           stroke-miterlimit="10"
           stroke-width="3"
           id="text428">E</text>
        <text
           fill="#1565c0"
           stroke="none"
           x="690"
           y="579"
           id="text430">E</text>
        <path
           fill="#1565c0"
           stroke="none"
           paint-order="stroke fill markers"
           d="m 871.5,502.5 c 0,2.76142 -2.23858,5 -5,5 -2.76142,0 -5,-2.23858 -5,-5 0,-2.76142 2.23858,-5 5,-5 2.76142,0 5,2.23858 5,5 z"
           id="path432" />
        <path
           fill="none"
           stroke="#000000"
           d="m 871.5,502.5 c 0,2.76142 -2.23858,5 -5,5 -2.76142,0 -5,-2.23858 -5,-5 0,-2.76142 2.23858,-5 5,-5 2.76142,0 5,2.23858 5,5 z"
           stroke-opacity="1"
           stroke-linecap="round"
           stroke-linejoin="round"
           stroke-miterlimit="10"
           id="path434" />
        <text
           fill="#1565c0"
           stroke="none"
           x="871"
           y="493"
           id="text436">F</text>
        <text
           fill="none"
           stroke="#ffffff"
           x="871"
           y="493"
           stroke-opacity="1"
           stroke-linejoin="bevel"
           stroke-miterlimit="10"
           stroke-width="3"
           id="text438">F</text>
        <text
           fill="#1565c0"
           stroke="none"
           x="871"
           y="493"
           id="text440">F</text>
        <path
           fill="#1565c0"
           stroke="none"
           paint-order="stroke fill markers"
           d="m 771.5,552.5 c 0,2.76142 -2.23858,5 -5,5 -2.76142,0 -5,-2.23858 -5,-5 0,-2.76142 2.23858,-5 5,-5 2.76142,0 5,2.23858 5,5 z"
           id="path442" />
        <path
           fill="none"
           stroke="#000000"
           d="m 771.5,552.5 c 0,2.76142 -2.23858,5 -5,5 -2.76142,0 -5,-2.23858 -5,-5 0,-2.76142 2.23858,-5 5,-5 2.76142,0 5,2.23858 5,5 z"
           stroke-opacity="1"
           stroke-linecap="round"
           stroke-linejoin="round"
           stroke-miterlimit="10"
           id="path444" />
        <text
           fill="#1565c0"
           stroke="none"
           x="774"
           y="578"
           id="text446">H</text>
        <text
           fill="none"
           stroke="#ffffff"
           x="774"
           y="578"
           stroke-opacity="1"
           stroke-linejoin="bevel"
           stroke-miterlimit="10"
           stroke-width="3"
           id="text448">H</text>
        <text
           fill="#1565c0"
           stroke="none"
           x="774"
           y="578"
           id="text450">H</text>
      </g>
    </g>
  </g>
</svg>
