<?xml version="1.0" encoding="UTF-8" standalone="no"?>
<svg
   version="1.1"
   width="250"
   height="250"
   id="svg79"
   xmlns="http://www.w3.org/2000/svg"
   xmlns:svg="http://www.w3.org/2000/svg">
  <defs
     id="defs5">
    <clipPath
       id="TlSTrhMgxyOB">
      <path
         fill="none"
         stroke="none"
         d="M 0,0 H 1524 V 848 H 0 Z"
         id="path2" />
    </clipPath>
    <clipPath
       clipPathUnits="userSpaceOnUse"
       id="clipPath343">
      <rect
         style="fill:#000000"
         id="rect345"
         width="253.16032"
         height="253.16032"
         x="599.52399"
         y="347.62314" />
    </clipPath>
  </defs>
  <g
     id="g223"
     clip-path="url(#clipPath343)"
     transform="translate(-599.52399,-347.62314)">
    <g
       clip-path="url(#TlSTrhMgxyOB)"
       id="g77">
      <g
         id="g75">
        <rect
           fill="#ffffff"
           stroke="none"
           x="0"
           y="0"
           width="1524"
           height="848"
           id="rect7" />
        <path
           fill="none"
           stroke="#616161"
           d="m 824,474 c 0,55.22847 -44.77153,100 -100,100 -55.22847,0 -100,-44.77153 -100,-100 0,-55.22847 44.77153,-100 100,-100 55.22847,0 100,44.77153 100,100 z"
           stroke-opacity="0.8"
           stroke-linecap="round"
           stroke-linejoin="round"
           stroke-miterlimit="10"
           stroke-width="2.5"
           id="path9" />
        <text
           fill="#616161"
           stroke="none"
           x="674"
           y="409"
           id="text11">J</text>
        <text
           fill="none"
           stroke="#ffffff"
           x="674"
           y="409"
           stroke-opacity="1"
           stroke-linejoin="bevel"
           stroke-miterlimit="10"
           stroke-width="3"
           id="text13">J</text>
        <text
           fill="#616161"
           stroke="none"
           x="674"
           y="409"
           id="text15">J</text>
        <path
           fill="none"
           stroke="#616161"
           d="M -5,474 H 1529"
           stroke-opacity="0.8"
           stroke-linecap="round"
           stroke-linejoin="round"
           stroke-miterlimit="10"
           stroke-width="0.5"
           id="path17" />
        <path
           fill="none"
           stroke="#616161"
           d="m 674,474 h 50"
           stroke-opacity="0.8"
           stroke-linecap="round"
           stroke-linejoin="round"
           stroke-miterlimit="10"
           stroke-width="2.5"
           id="path19" />
        <path
           fill="none"
           stroke="#616161"
           d="M 724,474 V 574"
           stroke-opacity="0.8"
           stroke-linejoin="round"
           stroke-miterlimit="10"
           stroke-width="2.5"
           stroke-dasharray="10.5, 8"
           id="path21" />
        <path
           fill="none"
           stroke="#616161"
           d="M 724,474 H 824"
           stroke-opacity="0.8"
           stroke-linejoin="round"
           stroke-miterlimit="10"
           stroke-width="2.5"
           stroke-dasharray="10.5, 8"
           id="path23" />
        <path
           fill="#1565c0"
           stroke="none"
           paint-order="stroke fill markers"
           d="m 679,474 c 0,2.76142 -2.23858,5 -5,5 -2.76142,0 -5,-2.23858 -5,-5 0,-2.76142 2.23858,-5 5,-5 2.76142,0 5,2.23858 5,5 z"
           id="path25" />
        <path
           fill="none"
           stroke="#000000"
           d="m 679,474 c 0,2.76142 -2.23858,5 -5,5 -2.76142,0 -5,-2.23858 -5,-5 0,-2.76142 2.23858,-5 5,-5 2.76142,0 5,2.23858 5,5 z"
           stroke-opacity="1"
           stroke-linecap="round"
           stroke-linejoin="round"
           stroke-miterlimit="10"
           id="path27" />
        <text
           fill="#1565c0"
           stroke="none"
           x="678"
           y="464"
           id="text29">A</text>
        <text
           fill="none"
           stroke="#ffffff"
           x="678"
           y="464"
           stroke-opacity="1"
           stroke-linejoin="bevel"
           stroke-miterlimit="10"
           stroke-width="3"
           id="text31">A</text>
        <text
           fill="#1565c0"
           stroke="none"
           x="678"
           y="464"
           id="text33">A</text>
        <path
           fill="#1565c0"
           stroke="none"
           paint-order="stroke fill markers"
           d="m 729,474 c 0,2.76142 -2.23858,5 -5,5 -2.76142,0 -5,-2.23858 -5,-5 0,-2.76142 2.23858,-5 5,-5 2.76142,0 5,2.23858 5,5 z"
           id="path35" />
        <path
           fill="none"
           stroke="#000000"
           d="m 729,474 c 0,2.76142 -2.23858,5 -5,5 -2.76142,0 -5,-2.23858 -5,-5 0,-2.76142 2.23858,-5 5,-5 2.76142,0 5,2.23858 5,5 z"
           stroke-opacity="1"
           stroke-linecap="round"
           stroke-linejoin="round"
           stroke-miterlimit="10"
           id="path37" />
        <text
           fill="#1565c0"
           stroke="none"
           x="728"
           y="464"
           id="text39">B</text>
        <text
           fill="none"
           stroke="#ffffff"
           x="728"
           y="464"
           stroke-opacity="1"
           stroke-linejoin="bevel"
           stroke-miterlimit="10"
           stroke-width="3"
           id="text41">B</text>
        <text
           fill="#1565c0"
           stroke="none"
           x="728"
           y="464"
           id="text43">B</text>
        <path
           fill="#1565c0"
           stroke="none"
           paint-order="stroke fill markers"
           d="m 729,574 c 0,2.76142 -2.23858,5 -5,5 -2.76142,0 -5,-2.23858 -5,-5 0,-2.76142 2.23858,-5 5,-5 2.76142,0 5,2.23858 5,5 z"
           id="path45" />
        <path
           fill="none"
           stroke="#000000"
           d="m 729,574 c 0,2.76142 -2.23858,5 -5,5 -2.76142,0 -5,-2.23858 -5,-5 0,-2.76142 2.23858,-5 5,-5 2.76142,0 5,2.23858 5,5 z"
           stroke-opacity="1"
           stroke-linecap="round"
           stroke-linejoin="round"
           stroke-miterlimit="10"
           id="path47" />
        <text
           fill="#1565c0"
           stroke="none"
           x="728"
           y="564"
           id="text49">Q</text>
        <text
           fill="none"
           stroke="#ffffff"
           x="728"
           y="564"
           stroke-opacity="1"
           stroke-linejoin="bevel"
           stroke-miterlimit="10"
           stroke-width="3"
           id="text51">Q</text>
        <text
           fill="#1565c0"
           stroke="none"
           x="728"
           y="564"
           id="text53">Q</text>
        <path
           fill="#616161"
           stroke="none"
           paint-order="stroke fill markers"
           d="m 628,474 c 0,2.20914 -1.79086,4 -4,4 -2.20914,0 -4,-1.79086 -4,-4 0,-2.20914 1.79086,-4 4,-4 2.20914,0 4,1.79086 4,4 z"
           id="path55" />
        <path
           fill="none"
           stroke="#000000"
           d="m 628,474 c 0,2.20914 -1.79086,4 -4,4 -2.20914,0 -4,-1.79086 -4,-4 0,-2.20914 1.79086,-4 4,-4 2.20914,0 4,1.79086 4,4 z"
           stroke-opacity="1"
           stroke-linecap="round"
           stroke-linejoin="round"
           stroke-miterlimit="10"
           id="path57" />
        <text
           fill="#616161"
           stroke="none"
           x="628"
           y="466"
           id="text59">X</text>
        <text
           fill="none"
           stroke="#ffffff"
           x="628"
           y="466"
           stroke-opacity="1"
           stroke-linejoin="bevel"
           stroke-miterlimit="10"
           stroke-width="3"
           id="text61">X</text>
        <text
           fill="#616161"
           stroke="none"
           x="628"
           y="466"
           id="text63">X</text>
        <path
           fill="#616161"
           stroke="none"
           paint-order="stroke fill markers"
           d="m 828,474 c 0,2.20914 -1.79086,4 -4,4 -2.20914,0 -4,-1.79086 -4,-4 0,-2.20914 1.79086,-4 4,-4 2.20914,0 4,1.79086 4,4 z"
           id="path65" />
        <path
           fill="none"
           stroke="#000000"
           d="m 828,474 c 0,2.20914 -1.79086,4 -4,4 -2.20914,0 -4,-1.79086 -4,-4 0,-2.20914 1.79086,-4 4,-4 2.20914,0 4,1.79086 4,4 z"
           stroke-opacity="1"
           stroke-linecap="round"
           stroke-linejoin="round"
           stroke-miterlimit="10"
           id="path67" />
        <text
           fill="#616161"
           stroke="none"
           x="828"
           y="466"
           id="text69">Y</text>
        <text
           fill="none"
           stroke="#ffffff"
           x="828"
           y="466"
           stroke-opacity="1"
           stroke-linejoin="bevel"
           stroke-miterlimit="10"
           stroke-width="3"
           id="text71">Y</text>
        <text
           fill="#616161"
           stroke="none"
           x="828"
           y="466"
           id="text73">Y</text>
      </g>
    </g>
  </g>
</svg>
