<?xml version="1.0" encoding="UTF-8" standalone="no"?>
<svg
   version="1.1"
   width="600"
   height="500"
   id="svg348"
   xmlns="http://www.w3.org/2000/svg"
   xmlns:svg="http://www.w3.org/2000/svg">
  <defs
     id="defs180">
    <clipPath
       id="LNMHdHThucov">
      <path
         fill="none"
         stroke="none"
         d="M 0,0 H 1524 V 905 H 0 Z"
         id="path177" />
    </clipPath>
    <clipPath
       clipPathUnits="userSpaceOnUse"
       id="clipPath603">
      <rect
         style="fill:#000000"
         id="rect605"
         width="600.24878"
         height="499.78607"
         x="349.40796"
         y="149.74626" />
    </clipPath>
  </defs>
  <g
     id="g539"
     clip-path="url(#clipPath603)"
     transform="translate(-349.40796,-149.74626)">
    <g
       clip-path="url(#LNMHdHThucov)"
       id="g346">
      <g
         id="g344">
        <rect
           fill="#ffffff"
           stroke="none"
           x="0"
           y="0"
           width="1524"
           height="905"
           id="rect182" />
        <path
           fill="#d32f2f"
           stroke="none"
           paint-order="stroke fill markers"
           d="m 442,402.5 c 0,-7.95649 -3.16071,-15.58711 -8.7868,-21.2132 L 412,402.5 Z"
           fill-opacity="0.0980392"
           id="path184" />
        <path
           fill="none"
           stroke="#d32f2f"
           d="m 442,402.5 c 0,-7.95649 -3.16071,-15.58711 -8.7868,-21.2132 L 412,402.5 Z"
           stroke-opacity="0.6"
           stroke-linecap="round"
           stroke-linejoin="round"
           stroke-miterlimit="10"
           stroke-width="2"
           id="path186" />
        <text
           fill="#d32f2f"
           stroke="none"
           x="444"
           y="389"
           id="text188">CBA</text>
        <text
           fill="none"
           stroke="#ffffff"
           x="444"
           y="389"
           stroke-opacity="1"
           stroke-linejoin="bevel"
           stroke-miterlimit="10"
           stroke-width="3"
           id="text190">CBA</text>
        <text
           fill="#d32f2f"
           stroke="none"
           x="444"
           y="389"
           id="text192">CBA</text>
        <path
           fill="#2e7d32"
           stroke="none"
           paint-order="stroke fill markers"
           d="m 742,402.5 c 0,-10.39733 -5.38357,-20.05333 -14.22807,-25.51952 -8.84449,-5.4662 -19.88868,-5.96312 -29.18834,-1.3133 L 712,402.5 Z"
           fill-opacity="0.0980392"
           id="path194" />
        <path
           fill="none"
           stroke="#2e7d32"
           d="m 742,402.5 c 0,-10.39733 -5.38357,-20.05333 -14.22807,-25.51952 -8.84449,-5.4662 -19.88868,-5.96312 -29.18834,-1.3133 L 712,402.5 Z"
           stroke-opacity="0.6"
           stroke-linecap="round"
           stroke-linejoin="round"
           stroke-miterlimit="10"
           stroke-width="2"
           id="path196" />
        <text
           fill="#2e7d32"
           stroke="none"
           x="731"
           y="370"
           id="text198">ACD</text>
        <text
           fill="none"
           stroke="#ffffff"
           x="731"
           y="370"
           stroke-opacity="1"
           stroke-linejoin="bevel"
           stroke-miterlimit="10"
           stroke-width="3"
           id="text200">ACD</text>
        <text
           fill="#2e7d32"
           stroke="none"
           x="731"
           y="370"
           id="text202">ACD</text>
        <path
           fill="#2e7d32"
           stroke="none"
           paint-order="stroke fill markers"
           d="m 682,402.5 c 0,10.39733 5.38357,20.05333 14.22807,25.51952 8.84449,5.4662 19.88868,5.96312 29.18834,1.3133 L 712,402.5 Z"
           fill-opacity="0.0980392"
           id="path204" />
        <path
           fill="none"
           stroke="#2e7d32"
           d="m 682,402.5 c 0,10.39733 5.38357,20.05333 14.22807,25.51952 8.84449,5.4662 19.88868,5.96312 29.18834,1.3133 L 712,402.5 Z"
           stroke-opacity="0.6"
           stroke-linecap="round"
           stroke-linejoin="round"
           stroke-miterlimit="10"
           stroke-width="2"
           id="path206" />
        <text
           fill="#2e7d32"
           stroke="none"
           x="682"
           y="452"
           id="text208">BCG</text>
        <text
           fill="none"
           stroke="#ffffff"
           x="682"
           y="452"
           stroke-opacity="1"
           stroke-linejoin="bevel"
           stroke-miterlimit="10"
           stroke-width="3"
           id="text210">BCG</text>
        <text
           fill="#2e7d32"
           stroke="none"
           x="682"
           y="452"
           id="text212">BCG</text>
        <path
           fill="#1565c0"
           stroke="none"
           paint-order="stroke fill markers"
           d="m 569.27607,373.39572 c -8.96224,-2.24055 -18.45695,-0.2271 -25.73844,5.45812 C 536.25615,384.53905 532,393.26194 532,402.5 h 30 z"
           fill-opacity="0.0980392"
           id="path214" />
        <path
           fill="none"
           stroke="#1565c0"
           d="m 569.27607,373.39572 c -8.96224,-2.24055 -18.45695,-0.2271 -25.73844,5.45812 C 536.25615,384.53905 532,393.26194 532,402.5 h 30 z"
           stroke-opacity="0.6"
           stroke-linecap="round"
           stroke-linejoin="round"
           stroke-miterlimit="10"
           stroke-width="2"
           id="path216" />
        <text
           fill="#1565c0"
           stroke="none"
           x="525"
           y="368"
           id="text218">AEB</text>
        <text
           fill="none"
           stroke="#ffffff"
           x="525"
           y="368"
           stroke-opacity="1"
           stroke-linejoin="bevel"
           stroke-miterlimit="10"
           stroke-width="3"
           id="text220">AEB</text>
        <text
           fill="#1565c0"
           stroke="none"
           x="525"
           y="368"
           id="text222">AEB</text>
        <path
           fill="#1565c0"
           stroke="none"
           paint-order="stroke fill markers"
           d="m 554.72393,431.60428 c 8.96224,2.24055 18.45695,0.2271 25.73844,-5.45812 C 587.74385,420.46095 592,411.73806 592,402.5 h -30 z"
           fill-opacity="0.0980392"
           id="path224" />
        <path
           fill="none"
           stroke="#1565c0"
           d="m 554.72393,431.60428 c 8.96224,2.24055 18.45695,0.2271 25.73844,-5.45812 C 587.74385,420.46095 592,411.73806 592,402.5 h -30 z"
           stroke-opacity="0.6"
           stroke-linecap="round"
           stroke-linejoin="round"
           stroke-miterlimit="10"
           stroke-width="2"
           id="path226" />
        <text
           fill="#1565c0"
           stroke="none"
           x="560"
           y="447"
           id="text228">CEF</text>
        <text
           fill="none"
           stroke="#ffffff"
           x="560"
           y="447"
           stroke-opacity="1"
           stroke-linejoin="bevel"
           stroke-miterlimit="10"
           stroke-width="3"
           id="text230">CEF</text>
        <text
           fill="#1565c0"
           stroke="none"
           x="560"
           y="447"
           id="text232">CEF</text>
        <path
           fill="#d32f2f"
           stroke="none"
           paint-order="stroke fill markers"
           d="m 682,402.5 c 0,7.95649 3.16071,15.58711 8.7868,21.2132 L 712,402.5 Z"
           fill-opacity="0.0980392"
           id="path234" />
        <path
           fill="none"
           stroke="#d32f2f"
           d="m 682,402.5 c 0,7.95649 3.16071,15.58711 8.7868,21.2132 L 712,402.5 Z"
           stroke-opacity="0.6"
           stroke-linecap="round"
           stroke-linejoin="round"
           stroke-miterlimit="10"
           stroke-width="2"
           id="path236" />
        <text
           fill="#d32f2f"
           stroke="none"
           x="643"
           y="424"
           id="text238">BCH</text>
        <text
           fill="none"
           stroke="#ffffff"
           x="643"
           y="424"
           stroke-opacity="1"
           stroke-linejoin="bevel"
           stroke-miterlimit="10"
           stroke-width="3"
           id="text240">BCH</text>
        <text
           fill="#d32f2f"
           stroke="none"
           x="643"
           y="424"
           id="text242">BCH</text>
        <path
           fill="none"
           stroke="#616161"
           d="m 412,402.5 200,-200"
           stroke-opacity="0.8"
           stroke-linecap="round"
           stroke-linejoin="round"
           stroke-miterlimit="10"
           stroke-width="2.5"
           id="path244" />
        <path
           fill="none"
           stroke="#616161"
           d="m 612,202.5 100,200"
           stroke-opacity="0.8"
           stroke-linecap="round"
           stroke-linejoin="round"
           stroke-miterlimit="10"
           stroke-width="2.5"
           id="path246" />
        <path
           fill="none"
           stroke="#1565c0"
           d="m 612,202.5 -50,200"
           stroke-opacity="0.8"
           stroke-linecap="round"
           stroke-linejoin="round"
           stroke-miterlimit="10"
           stroke-width="2.5"
           id="path248" />
        <path
           fill="none"
           stroke="#1565c0"
           d="m 562,402.5 -50,200"
           stroke-opacity="0.8"
           stroke-linecap="round"
           stroke-linejoin="round"
           stroke-miterlimit="10"
           stroke-width="2.5"
           id="path250" />
        <path
           fill="none"
           stroke="#616161"
           d="m 512,602.5 200,-200"
           stroke-opacity="0.8"
           stroke-linecap="round"
           stroke-linejoin="round"
           stroke-miterlimit="10"
           stroke-width="2.5"
           id="path252" />
        <path
           fill="none"
           stroke="#616161"
           d="M 779.3,537.1 562,402.5"
           stroke-opacity="0.8"
           stroke-linecap="round"
           stroke-linejoin="round"
           stroke-miterlimit="10"
           stroke-width="2.5"
           id="path254" />
        <path
           fill="none"
           stroke="#616161"
           d="m 712,402.5 67.3,134.6"
           stroke-opacity="0.8"
           stroke-linecap="round"
           stroke-linejoin="round"
           stroke-miterlimit="10"
           stroke-width="2.5"
           id="path256" />
        <path
           fill="none"
           stroke="#d32f2f"
           d="M 412,402.5 H 562"
           stroke-opacity="0.8"
           stroke-linecap="round"
           stroke-linejoin="round"
           stroke-miterlimit="10"
           stroke-width="2.5"
           id="path258" />
        <path
           fill="none"
           stroke="#d32f2f"
           d="M 562,402.5 H 712"
           stroke-opacity="0.8"
           stroke-linecap="round"
           stroke-linejoin="round"
           stroke-miterlimit="10"
           stroke-width="2.5"
           id="path260" />
        <path
           fill="none"
           stroke="#616161"
           d="M 712,402.5 H 892"
           stroke-opacity="0.8"
           stroke-linecap="round"
           stroke-linejoin="round"
           stroke-miterlimit="10"
           stroke-width="2.5"
           id="path262" />
        <path
           fill="#1565c0"
           stroke="none"
           paint-order="stroke fill markers"
           d="m 617,202.5 c 0,2.76142 -2.23858,5 -5,5 -2.76142,0 -5,-2.23858 -5,-5 0,-2.76142 2.23858,-5 5,-5 2.76142,0 5,2.23858 5,5 z"
           id="path264" />
        <path
           fill="none"
           stroke="#000000"
           d="m 617,202.5 c 0,2.76142 -2.23858,5 -5,5 -2.76142,0 -5,-2.23858 -5,-5 0,-2.76142 2.23858,-5 5,-5 2.76142,0 5,2.23858 5,5 z"
           stroke-opacity="1"
           stroke-linecap="round"
           stroke-linejoin="round"
           stroke-miterlimit="10"
           id="path266" />
        <text
           fill="#1565c0"
           stroke="none"
           x="632"
           y="191"
           id="text268">A</text>
        <text
           fill="none"
           stroke="#ffffff"
           x="632"
           y="191"
           stroke-opacity="1"
           stroke-linejoin="bevel"
           stroke-miterlimit="10"
           stroke-width="3"
           id="text270">A</text>
        <text
           fill="#1565c0"
           stroke="none"
           x="632"
           y="191"
           id="text272">A</text>
        <path
           fill="#1565c0"
           stroke="none"
           paint-order="stroke fill markers"
           d="m 417,402.5 c 0,2.76142 -2.23858,5 -5,5 -2.76142,0 -5,-2.23858 -5,-5 0,-2.76142 2.23858,-5 5,-5 2.76142,0 5,2.23858 5,5 z"
           id="path274" />
        <path
           fill="none"
           stroke="#000000"
           d="m 417,402.5 c 0,2.76142 -2.23858,5 -5,5 -2.76142,0 -5,-2.23858 -5,-5 0,-2.76142 2.23858,-5 5,-5 2.76142,0 5,2.23858 5,5 z"
           stroke-opacity="1"
           stroke-linecap="round"
           stroke-linejoin="round"
           stroke-miterlimit="10"
           id="path276" />
        <text
           fill="#1565c0"
           stroke="none"
           x="382"
           y="389"
           id="text278">B</text>
        <text
           fill="none"
           stroke="#ffffff"
           x="382"
           y="389"
           stroke-opacity="1"
           stroke-linejoin="bevel"
           stroke-miterlimit="10"
           stroke-width="3"
           id="text280">B</text>
        <text
           fill="#1565c0"
           stroke="none"
           x="382"
           y="389"
           id="text282">B</text>
        <path
           fill="#1565c0"
           stroke="none"
           paint-order="stroke fill markers"
           d="m 717,402.5 c 0,2.76142 -2.23858,5 -5,5 -2.76142,0 -5,-2.23858 -5,-5 0,-2.76142 2.23858,-5 5,-5 2.76142,0 5,2.23858 5,5 z"
           id="path284" />
        <path
           fill="none"
           stroke="#000000"
           d="m 717,402.5 c 0,2.76142 -2.23858,5 -5,5 -2.76142,0 -5,-2.23858 -5,-5 0,-2.76142 2.23858,-5 5,-5 2.76142,0 5,2.23858 5,5 z"
           stroke-opacity="1"
           stroke-linecap="round"
           stroke-linejoin="round"
           stroke-miterlimit="10"
           id="path286" />
        <text
           fill="#1565c0"
           stroke="none"
           x="724"
           y="423"
           id="text288">C</text>
        <text
           fill="none"
           stroke="#ffffff"
           x="724"
           y="423"
           stroke-opacity="1"
           stroke-linejoin="bevel"
           stroke-miterlimit="10"
           stroke-width="3"
           id="text290">C</text>
        <text
           fill="#1565c0"
           stroke="none"
           x="724"
           y="423"
           id="text292">C</text>
        <path
           fill="#1565c0"
           stroke="none"
           paint-order="stroke fill markers"
           d="m 897,402.5 c 0,2.76142 -2.23858,5 -5,5 -2.76142,0 -5,-2.23858 -5,-5 0,-2.76142 2.23858,-5 5,-5 2.76142,0 5,2.23858 5,5 z"
           id="path294" />
        <path
           fill="none"
           stroke="#000000"
           d="m 897,402.5 c 0,2.76142 -2.23858,5 -5,5 -2.76142,0 -5,-2.23858 -5,-5 0,-2.76142 2.23858,-5 5,-5 2.76142,0 5,2.23858 5,5 z"
           stroke-opacity="1"
           stroke-linecap="round"
           stroke-linejoin="round"
           stroke-miterlimit="10"
           id="path296" />
        <text
           fill="#1565c0"
           stroke="none"
           x="896"
           y="393"
           id="text298">D</text>
        <text
           fill="none"
           stroke="#ffffff"
           x="896"
           y="393"
           stroke-opacity="1"
           stroke-linejoin="bevel"
           stroke-miterlimit="10"
           stroke-width="3"
           id="text300">D</text>
        <text
           fill="#1565c0"
           stroke="none"
           x="896"
           y="393"
           id="text302">D</text>
        <path
           fill="#616161"
           stroke="none"
           paint-order="stroke fill markers"
           d="m 566,402.5 c 0,2.20914 -1.79086,4 -4,4 -2.20914,0 -4,-1.79086 -4,-4 0,-2.20914 1.79086,-4 4,-4 2.20914,0 4,1.79086 4,4 z"
           id="path304" />
        <path
           fill="none"
           stroke="#000000"
           d="m 566,402.5 c 0,2.20914 -1.79086,4 -4,4 -2.20914,0 -4,-1.79086 -4,-4 0,-2.20914 1.79086,-4 4,-4 2.20914,0 4,1.79086 4,4 z"
           stroke-opacity="1"
           stroke-linecap="round"
           stroke-linejoin="round"
           stroke-miterlimit="10"
           id="path306" />
        <text
           fill="#616161"
           stroke="none"
           x="574"
           y="396"
           id="text308">E</text>
        <text
           fill="none"
           stroke="#ffffff"
           x="574"
           y="396"
           stroke-opacity="1"
           stroke-linejoin="bevel"
           stroke-miterlimit="10"
           stroke-width="3"
           id="text310">E</text>
        <text
           fill="#616161"
           stroke="none"
           x="574"
           y="396"
           id="text312">E</text>
        <path
           fill="#616161"
           stroke="none"
           paint-order="stroke fill markers"
           d="m 516,602.5 c 0,2.20914 -1.79086,4 -4,4 -2.20914,0 -4,-1.79086 -4,-4 0,-2.20914 1.79086,-4 4,-4 2.20914,0 4,1.79086 4,4 z"
           id="path314" />
        <path
           fill="none"
           stroke="#000000"
           d="m 516,602.5 c 0,2.20914 -1.79086,4 -4,4 -2.20914,0 -4,-1.79086 -4,-4 0,-2.20914 1.79086,-4 4,-4 2.20914,0 4,1.79086 4,4 z"
           stroke-opacity="1"
           stroke-linecap="round"
           stroke-linejoin="round"
           stroke-miterlimit="10"
           id="path316" />
        <text
           fill="#616161"
           stroke="none"
           x="492"
           y="595"
           id="text318">F</text>
        <text
           fill="none"
           stroke="#ffffff"
           x="492"
           y="595"
           stroke-opacity="1"
           stroke-linejoin="bevel"
           stroke-miterlimit="10"
           stroke-width="3"
           id="text320">F</text>
        <text
           fill="#616161"
           stroke="none"
           x="492"
           y="595"
           id="text322">F</text>
        <path
           fill="#1565c0"
           stroke="none"
           paint-order="stroke fill markers"
           d="m 784.3,537.1 c 0,2.76142 -2.23858,5 -5,5 -2.76142,0 -5,-2.23858 -5,-5 0,-2.76142 2.23858,-5 5,-5 2.76142,0 5,2.23858 5,5 z"
           id="path324" />
        <path
           fill="none"
           stroke="#000000"
           d="m 784.3,537.1 c 0,2.76142 -2.23858,5 -5,5 -2.76142,0 -5,-2.23858 -5,-5 0,-2.76142 2.23858,-5 5,-5 2.76142,0 5,2.23858 5,5 z"
           stroke-opacity="1"
           stroke-linecap="round"
           stroke-linejoin="round"
           stroke-miterlimit="10"
           id="path326" />
        <text
           fill="#1565c0"
           stroke="none"
           x="783"
           y="527"
           id="text328">G</text>
        <text
           fill="none"
           stroke="#ffffff"
           x="783"
           y="527"
           stroke-opacity="1"
           stroke-linejoin="bevel"
           stroke-miterlimit="10"
           stroke-width="3"
           id="text330">G</text>
        <text
           fill="#1565c0"
           stroke="none"
           x="783"
           y="527"
           id="text332">G</text>
        <path
           fill="#616161"
           stroke="none"
           paint-order="stroke fill markers"
           d="m 658.62575,459.87425 c 0,2.20914 -1.79087,4 -4,4 -2.20914,0 -4,-1.79086 -4,-4 0,-2.20913 1.79086,-4 4,-4 2.20913,0 4,1.79087 4,4 z"
           id="path334" />
        <path
           fill="none"
           stroke="#000000"
           d="m 658.62575,459.87425 c 0,2.20914 -1.79087,4 -4,4 -2.20914,0 -4,-1.79086 -4,-4 0,-2.20913 1.79086,-4 4,-4 2.20913,0 4,1.79087 4,4 z"
           stroke-opacity="1"
           stroke-linecap="round"
           stroke-linejoin="round"
           stroke-miterlimit="10"
           id="path336" />
        <text
           fill="#616161"
           stroke="none"
           x="647"
           y="488"
           id="text338">H</text>
        <text
           fill="none"
           stroke="#ffffff"
           x="647"
           y="488"
           stroke-opacity="1"
           stroke-linejoin="bevel"
           stroke-miterlimit="10"
           stroke-width="3"
           id="text340">H</text>
        <text
           fill="#616161"
           stroke="none"
           x="647"
           y="488"
           id="text342">H</text>
      </g>
    </g>
  </g>
</svg>
