<?xml version="1.0" encoding="UTF-8" standalone="no"?>
<svg
   version="1.1"
   width="550"
   height="300"
   id="svg218"
   xmlns="http://www.w3.org/2000/svg"
   xmlns:svg="http://www.w3.org/2000/svg">
  <defs
     id="defs140">
    <clipPath
       id="DbEtnlGoiMXR">
      <path
         fill="none"
         stroke="none"
         d="M 0,0 H 1524 V 889 H 0 Z"
         id="path137" />
    </clipPath>
    <clipPath
       clipPathUnits="userSpaceOnUse"
       id="clipPath448">
      <rect
         style="fill:#000000"
         id="rect450"
         width="549.98486"
         height="299.78864"
         x="349.82788"
         y="50.039238" />
    </clipPath>
  </defs>
  <g
     clip-path="url(#clipPath448)"
     id="g216"
     transform="translate(-349.82788,-50.039238)">
    <g
       id="g214">
      <rect
         fill="#ffffff"
         stroke="none"
         x="0"
         y="0"
         width="1524"
         height="889"
         id="rect142" />
      <path
         fill="none"
         stroke="#1565c0"
         d="M 837.80797,294.61087 612,294.5"
         stroke-opacity="0.8"
         stroke-linecap="round"
         stroke-linejoin="round"
         stroke-miterlimit="10"
         stroke-width="2.5"
         id="path144" />
      <path
         fill="none"
         stroke="#2e7d32"
         d="M 612,294.5 412.00005,294.4018"
         stroke-opacity="0.8"
         stroke-linecap="round"
         stroke-linejoin="round"
         stroke-miterlimit="10"
         stroke-width="2.5"
         id="path146" />
      <path
         fill="none"
         stroke="#2e7d32"
         d="M 725,99 412.00005,294.4018"
         stroke-opacity="0.8"
         stroke-linecap="round"
         stroke-linejoin="round"
         stroke-miterlimit="10"
         stroke-width="2.5"
         id="path148" />
      <path
         fill="none"
         stroke="#2e7d32"
         d="M 725,99 612,294.5"
         stroke-opacity="0.8"
         stroke-linecap="round"
         stroke-linejoin="round"
         stroke-miterlimit="10"
         stroke-width="2.5"
         id="path150" />
      <path
         fill="none"
         stroke="#d32f2f"
         d="M 837.80797,294.61087 616.53444,166.71364"
         stroke-opacity="0.8"
         stroke-linecap="round"
         stroke-linejoin="round"
         stroke-miterlimit="10"
         stroke-width="2.5"
         id="path152" />
      <path
         fill="#1565c0"
         stroke="none"
         paint-order="stroke fill markers"
         d="m 730,99 c 0,2.76142 -2.23858,5 -5,5 -2.76142,0 -5,-2.23858 -5,-5 0,-2.761424 2.23858,-5 5,-5 2.76142,0 5,2.238576 5,5 z"
         id="path154" />
      <path
         fill="none"
         stroke="#000000"
         d="m 730,99 c 0,2.76142 -2.23858,5 -5,5 -2.76142,0 -5,-2.23858 -5,-5 0,-2.761424 2.23858,-5 5,-5 2.76142,0 5,2.238576 5,5 z"
         stroke-opacity="1"
         stroke-linecap="round"
         stroke-linejoin="round"
         stroke-miterlimit="10"
         id="path156" />
      <text
         fill="#1565c0"
         stroke="none"
         x="729"
         y="89"
         id="text158">A</text>
      <text
         fill="none"
         stroke="#ffffff"
         x="729"
         y="89"
         stroke-opacity="1"
         stroke-linejoin="bevel"
         stroke-miterlimit="10"
         stroke-width="3"
         id="text160">A</text>
      <text
         fill="#1565c0"
         stroke="none"
         x="729"
         y="89"
         id="text162">A</text>
      <path
         fill="#1565c0"
         stroke="none"
         paint-order="stroke fill markers"
         d="m 617,294.5 c 0,2.76142 -2.23858,5 -5,5 -2.76142,0 -5,-2.23858 -5,-5 0,-2.76142 2.23858,-5 5,-5 2.76142,0 5,2.23858 5,5 z"
         id="path164" />
      <path
         fill="none"
         stroke="#000000"
         d="m 617,294.5 c 0,2.76142 -2.23858,5 -5,5 -2.76142,0 -5,-2.23858 -5,-5 0,-2.76142 2.23858,-5 5,-5 2.76142,0 5,2.23858 5,5 z"
         stroke-opacity="1"
         stroke-linecap="round"
         stroke-linejoin="round"
         stroke-miterlimit="10"
         id="path166" />
      <text
         fill="#1565c0"
         stroke="none"
         x="597"
         y="281"
         id="text168">B</text>
      <text
         fill="none"
         stroke="#ffffff"
         x="597"
         y="281"
         stroke-opacity="1"
         stroke-linejoin="bevel"
         stroke-miterlimit="10"
         stroke-width="3"
         id="text170">B</text>
      <text
         fill="#1565c0"
         stroke="none"
         x="597"
         y="281"
         id="text172">B</text>
      <path
         fill="#616161"
         stroke="none"
         paint-order="stroke fill markers"
         d="m 841.80797,294.61087 c 0,2.20914 -1.79086,4 -4,4 -2.20914,0 -4,-1.79086 -4,-4 0,-2.20914 1.79086,-4 4,-4 2.20914,0 4,1.79086 4,4 z"
         id="path174" />
      <path
         fill="none"
         stroke="#000000"
         d="m 841.80797,294.61087 c 0,2.20914 -1.79086,4 -4,4 -2.20914,0 -4,-1.79086 -4,-4 0,-2.20914 1.79086,-4 4,-4 2.20914,0 4,1.79086 4,4 z"
         stroke-opacity="1"
         stroke-linecap="round"
         stroke-linejoin="round"
         stroke-miterlimit="10"
         id="path176" />
      <text
         fill="#616161"
         stroke="none"
         x="848"
         y="280"
         id="text178">C</text>
      <text
         fill="none"
         stroke="#ffffff"
         x="848"
         y="280"
         stroke-opacity="1"
         stroke-linejoin="bevel"
         stroke-miterlimit="10"
         stroke-width="3"
         id="text180">C</text>
      <text
         fill="#616161"
         stroke="none"
         x="848"
         y="280"
         id="text182">C</text>
      <path
         fill="#1565c0"
         stroke="none"
         paint-order="stroke fill markers"
         d="m 417.00005,294.4018 c 0,2.76142 -2.23858,5 -5,5 -2.76143,0 -5,-2.23858 -5,-5 0,-2.76142 2.23857,-5 5,-5 2.76142,0 5,2.23858 5,5 z"
         id="path184" />
      <path
         fill="none"
         stroke="#000000"
         d="m 417.00005,294.4018 c 0,2.76142 -2.23858,5 -5,5 -2.76143,0 -5,-2.23858 -5,-5 0,-2.76142 2.23857,-5 5,-5 2.76142,0 5,2.23858 5,5 z"
         stroke-opacity="1"
         stroke-linecap="round"
         stroke-linejoin="round"
         stroke-miterlimit="10"
         id="path186" />
      <text
         fill="#1565c0"
         stroke="none"
         x="391"
         y="289"
         id="text188">D</text>
      <text
         fill="none"
         stroke="#ffffff"
         x="391"
         y="289"
         stroke-opacity="1"
         stroke-linejoin="bevel"
         stroke-miterlimit="10"
         stroke-width="3"
         id="text190">D</text>
      <text
         fill="#1565c0"
         stroke="none"
         x="391"
         y="289"
         id="text192">D</text>
      <path
         fill="#616161"
         stroke="none"
         paint-order="stroke fill markers"
         d="m 620.53444,166.71364 c 0,2.20914 -1.79086,4 -4,4 -2.20914,0 -4,-1.79086 -4,-4 0,-2.20914 1.79086,-4 4,-4 2.20914,0 4,1.79086 4,4 z"
         id="path194" />
      <path
         fill="none"
         stroke="#000000"
         d="m 620.53444,166.71364 c 0,2.20914 -1.79086,4 -4,4 -2.20914,0 -4,-1.79086 -4,-4 0,-2.20914 1.79086,-4 4,-4 2.20914,0 4,1.79086 4,4 z"
         stroke-opacity="1"
         stroke-linecap="round"
         stroke-linejoin="round"
         stroke-miterlimit="10"
         id="path196" />
      <text
         fill="#616161"
         stroke="none"
         x="604"
         y="159"
         id="text198">F</text>
      <text
         fill="none"
         stroke="#ffffff"
         x="604"
         y="159"
         stroke-opacity="1"
         stroke-linejoin="bevel"
         stroke-miterlimit="10"
         stroke-width="3"
         id="text200">F</text>
      <text
         fill="#616161"
         stroke="none"
         x="604"
         y="159"
         id="text202">F</text>
      <path
         fill="#616161"
         stroke="none"
         paint-order="stroke fill markers"
         d="m 672.5,196.75 c 0,2.20914 -1.79086,4 -4,4 -2.20914,0 -4,-1.79086 -4,-4 0,-2.20914 1.79086,-4 4,-4 2.20914,0 4,1.79086 4,4 z"
         id="path204" />
      <path
         fill="none"
         stroke="#000000"
         d="m 672.5,196.75 c 0,2.20914 -1.79086,4 -4,4 -2.20914,0 -4,-1.79086 -4,-4 0,-2.20914 1.79086,-4 4,-4 2.20914,0 4,1.79086 4,4 z"
         stroke-opacity="1"
         stroke-linecap="round"
         stroke-linejoin="round"
         stroke-miterlimit="10"
         id="path206" />
      <text
         fill="#616161"
         stroke="none"
         x="683"
         y="198"
         id="text208">M</text>
      <text
         fill="none"
         stroke="#ffffff"
         x="683"
         y="198"
         stroke-opacity="1"
         stroke-linejoin="bevel"
         stroke-miterlimit="10"
         stroke-width="3"
         id="text210">M</text>
      <text
         fill="#616161"
         stroke="none"
         x="683"
         y="198"
         id="text212">M</text>
    </g>
  </g>
</svg>
