<?xml version="1.0" encoding="UTF-8" standalone="no"?>
<svg
   version="1.1"
   width="600"
   height="500"
   id="svg172"
   xmlns="http://www.w3.org/2000/svg"
   xmlns:svg="http://www.w3.org/2000/svg">
  <defs
     id="defs92">
    <clipPath
       id="uxFveyXtpmvp">
      <path
         fill="none"
         stroke="none"
         d="M 0,0 H 1524 V 889 H 0 Z"
         id="path89" />
    </clipPath>
    <clipPath
       clipPathUnits="userSpaceOnUse"
       id="clipPath401">
      <rect
         style="fill:#000000"
         id="rect403"
         width="600.24878"
         height="500.41791"
         x="299.49252"
         y="0" />
    </clipPath>
  </defs>
  <g
     clip-path="url(#clipPath401)"
     id="g170"
     transform="translate(-299.49252)">
    <g
       id="g168">
      <g
         id="g397">
        <rect
           fill="#ffffff"
           stroke="none"
           x="0"
           y="0"
           width="1524"
           height="889"
           id="rect94" />
      </g>
      <path
         fill="none"
         stroke="#2e7d32"
         d="M 612,444.5 378.69684,442.59292"
         stroke-opacity="0.8"
         stroke-linecap="round"
         stroke-linejoin="round"
         stroke-miterlimit="10"
         stroke-width="2.5"
         id="path96" />
      <path
         fill="none"
         stroke="#2e7d32"
         d="M 378.69684,442.59292 497,241.5"
         stroke-opacity="0.8"
         stroke-linecap="round"
         stroke-linejoin="round"
         stroke-miterlimit="10"
         stroke-width="2.5"
         id="path98" />
      <path
         fill="none"
         stroke="#2e7d32"
         d="M 497,241.5 600.20012,66.079369"
         stroke-opacity="0.8"
         stroke-linecap="round"
         stroke-linejoin="round"
         stroke-miterlimit="10"
         stroke-width="2.5"
         id="path100" />
      <path
         fill="none"
         stroke="#2e7d32"
         d="M 612,444.5 600.20012,66.079369"
         stroke-opacity="0.8"
         stroke-linecap="round"
         stroke-linejoin="round"
         stroke-miterlimit="10"
         stroke-width="2.5"
         id="path102" />
      <path
         fill="none"
         stroke="#d32f2f"
         d="M 815.51878,446.16361 497,241.5"
         stroke-opacity="0.8"
         stroke-linecap="round"
         stroke-linejoin="round"
         stroke-miterlimit="10"
         stroke-width="2.5"
         id="path104" />
      <path
         fill="none"
         stroke="#1565c0"
         d="m 612,444.5 203.51878,1.66361"
         stroke-opacity="0.8"
         stroke-linecap="round"
         stroke-linejoin="round"
         stroke-miterlimit="10"
         stroke-width="2.5"
         id="path106" />
      <path
         fill="#1565c0"
         stroke="none"
         paint-order="stroke fill markers"
         d="m 617,444.5 c 0,2.76142 -2.23858,5 -5,5 -2.76142,0 -5,-2.23858 -5,-5 0,-2.76142 2.23858,-5 5,-5 2.76142,0 5,2.23858 5,5 z"
         id="path108" />
      <path
         fill="none"
         stroke="#000000"
         d="m 617,444.5 c 0,2.76142 -2.23858,5 -5,5 -2.76142,0 -5,-2.23858 -5,-5 0,-2.76142 2.23858,-5 5,-5 2.76142,0 5,2.23858 5,5 z"
         stroke-opacity="1"
         stroke-linecap="round"
         stroke-linejoin="round"
         stroke-miterlimit="10"
         id="path110" />
      <text
         fill="#1565c0"
         stroke="none"
         x="616"
         y="435"
         id="text112">A</text>
      <text
         fill="none"
         stroke="#ffffff"
         x="616"
         y="435"
         stroke-opacity="1"
         stroke-linejoin="bevel"
         stroke-miterlimit="10"
         stroke-width="3"
         id="text114">A</text>
      <text
         fill="#1565c0"
         stroke="none"
         x="616"
         y="435"
         id="text116">A</text>
      <path
         fill="#1565c0"
         stroke="none"
         paint-order="stroke fill markers"
         d="m 502,241.5 c 0,2.76142 -2.23858,5 -5,5 -2.76142,0 -5,-2.23858 -5,-5 0,-2.76142 2.23858,-5 5,-5 2.76142,0 5,2.23858 5,5 z"
         id="path118" />
      <path
         fill="none"
         stroke="#000000"
         d="m 502,241.5 c 0,2.76142 -2.23858,5 -5,5 -2.76142,0 -5,-2.23858 -5,-5 0,-2.76142 2.23858,-5 5,-5 2.76142,0 5,2.23858 5,5 z"
         stroke-opacity="1"
         stroke-linecap="round"
         stroke-linejoin="round"
         stroke-miterlimit="10"
         id="path120" />
      <text
         fill="#1565c0"
         stroke="none"
         x="501"
         y="231"
         id="text122">B</text>
      <text
         fill="none"
         stroke="#ffffff"
         x="501"
         y="231"
         stroke-opacity="1"
         stroke-linejoin="bevel"
         stroke-miterlimit="10"
         stroke-width="3"
         id="text124">B</text>
      <text
         fill="#1565c0"
         stroke="none"
         x="501"
         y="231"
         id="text126">B</text>
      <path
         fill="#616161"
         stroke="none"
         paint-order="stroke fill markers"
         d="m 382.69684,442.59292 c 0,2.20914 -1.79086,4 -4,4 -2.20914,0 -4,-1.79086 -4,-4 0,-2.20914 1.79086,-4 4,-4 2.20914,0 4,1.79086 4,4 z"
         id="path128" />
      <path
         fill="none"
         stroke="#000000"
         d="m 382.69684,442.59292 c 0,2.20914 -1.79086,4 -4,4 -2.20914,0 -4,-1.79086 -4,-4 0,-2.20914 1.79086,-4 4,-4 2.20914,0 4,1.79086 4,4 z"
         stroke-opacity="1"
         stroke-linecap="round"
         stroke-linejoin="round"
         stroke-miterlimit="10"
         id="path130" />
      <text
         fill="#616161"
         stroke="none"
         x="354"
         y="434"
         id="text132">C</text>
      <text
         fill="none"
         stroke="#ffffff"
         x="354"
         y="434"
         stroke-opacity="1"
         stroke-linejoin="bevel"
         stroke-miterlimit="10"
         stroke-width="3"
         id="text134">C</text>
      <text
         fill="#616161"
         stroke="none"
         x="354"
         y="434"
         id="text136">C</text>
      <path
         fill="#1565c0"
         stroke="none"
         paint-order="stroke fill markers"
         d="m 605.20012,66.079369 c 0,2.761424 -2.23857,5 -5,5 -2.76142,0 -5,-2.238576 -5,-5 0,-2.761424 2.23858,-5 5,-5 2.76143,0 5,2.238576 5,5 z"
         id="path138" />
      <path
         fill="none"
         stroke="#000000"
         d="m 605.20012,66.079369 c 0,2.761424 -2.23857,5 -5,5 -2.76142,0 -5,-2.238576 -5,-5 0,-2.761424 2.23858,-5 5,-5 2.76143,0 5,2.238576 5,5 z"
         stroke-opacity="1"
         stroke-linecap="round"
         stroke-linejoin="round"
         stroke-miterlimit="10"
         id="path140" />
      <text
         fill="#1565c0"
         stroke="none"
         x="604"
         y="56"
         id="text142">D</text>
      <text
         fill="none"
         stroke="#ffffff"
         x="604"
         y="56"
         stroke-opacity="1"
         stroke-linejoin="bevel"
         stroke-miterlimit="10"
         stroke-width="3"
         id="text144">D</text>
      <text
         fill="#1565c0"
         stroke="none"
         x="604"
         y="56"
         id="text146">D</text>
      <path
         fill="#616161"
         stroke="none"
         paint-order="stroke fill markers"
         d="m 819.51878,446.16361 c 0,2.20914 -1.79086,4 -4,4 -2.20913,0 -4,-1.79086 -4,-4 0,-2.20914 1.79087,-4 4,-4 2.20914,0 4,1.79086 4,4 z"
         id="path148" />
      <path
         fill="none"
         stroke="#000000"
         d="m 819.51878,446.16361 c 0,2.20914 -1.79086,4 -4,4 -2.20913,0 -4,-1.79086 -4,-4 0,-2.20914 1.79087,-4 4,-4 2.20914,0 4,1.79086 4,4 z"
         stroke-opacity="1"
         stroke-linecap="round"
         stroke-linejoin="round"
         stroke-miterlimit="10"
         id="path150" />
      <text
         fill="#616161"
         stroke="none"
         x="846"
         y="448"
         id="text152">E</text>
      <text
         fill="none"
         stroke="#ffffff"
         x="846"
         y="448"
         stroke-opacity="1"
         stroke-linejoin="bevel"
         stroke-miterlimit="10"
         stroke-width="3"
         id="text154">E</text>
      <text
         fill="#616161"
         stroke="none"
         x="846"
         y="448"
         id="text156">E</text>
      <path
         fill="#616161"
         stroke="none"
         paint-order="stroke fill markers"
         d="m 611.89189,312.75336 c 0,2.20914 -1.79086,4 -4,4 -2.20914,0 -4,-1.79086 -4,-4 0,-2.20914 1.79086,-4 4,-4 2.20914,0 4,1.79086 4,4 z"
         id="path158" />
      <path
         fill="none"
         stroke="#000000"
         d="m 611.89189,312.75336 c 0,2.20914 -1.79086,4 -4,4 -2.20914,0 -4,-1.79086 -4,-4 0,-2.20914 1.79086,-4 4,-4 2.20914,0 4,1.79086 4,4 z"
         stroke-opacity="1"
         stroke-linecap="round"
         stroke-linejoin="round"
         stroke-miterlimit="10"
         id="path160" />
      <text
         fill="#616161"
         stroke="none"
         x="612"
         y="305"
         id="text162">F</text>
      <text
         fill="none"
         stroke="#ffffff"
         x="612"
         y="305"
         stroke-opacity="1"
         stroke-linejoin="bevel"
         stroke-miterlimit="10"
         stroke-width="3"
         id="text164">F</text>
      <text
         fill="#616161"
         stroke="none"
         x="612"
         y="305"
         id="text166">F</text>
    </g>
  </g>
</svg>
