<?xml version="1.0" encoding="UTF-8" standalone="no"?>
<svg
   version="1.1"
   width="400"
   height="300"
   id="svg172"
   xmlns="http://www.w3.org/2000/svg"
   xmlns:svg="http://www.w3.org/2000/svg">
  <defs
     id="defs92">
    <clipPath
       id="rOCEKwSQzdzQ">
      <path
         fill="none"
         stroke="none"
         d="M 0,0 H 1076 V 848 H 0 Z"
         id="path89" />
    </clipPath>
    <clipPath
       clipPathUnits="userSpaceOnUse"
       id="clipPath447">
      <rect
         style="fill:#000000"
         id="rect449"
         width="400.22244"
         height="300.52039"
         x="249.60869"
         y="299.81326" />
    </clipPath>
  </defs>
  <g
     id="g319"
     clip-path="url(#clipPath447)"
     transform="translate(-249.60869,-299.81326)">
    <g
       clip-path="url(#rOCEKwSQzdzQ)"
       id="g170">
      <g
         id="g168">
        <rect
           fill="#ffffff"
           stroke="none"
           x="0"
           y="0"
           width="1076"
           height="848"
           id="rect94" />
        <path
           fill="none"
           stroke="#616161"
           d="m 512,452.5 c 0,55.22847 -44.77153,100 -100,100 -55.22847,0 -100,-44.77153 -100,-100 0,-55.22847 44.77153,-100 100,-100 55.22847,0 100,44.77153 100,100 z"
           stroke-opacity="0.8"
           stroke-linecap="round"
           stroke-linejoin="round"
           stroke-miterlimit="10"
           stroke-width="2.5"
           id="path96" />
        <text
           fill="#616161"
           stroke="none"
           x="381"
           y="379"
           id="text98">J</text>
        <text
           fill="none"
           stroke="#ffffff"
           x="381"
           y="379"
           stroke-opacity="1"
           stroke-linejoin="bevel"
           stroke-miterlimit="10"
           stroke-width="3"
           id="text100">J</text>
        <text
           fill="#616161"
           stroke="none"
           x="381"
           y="379"
           id="text102">J</text>
        <path
           fill="none"
           stroke="#616161"
           d="m 612,452.5 c 0,55.22847 -44.77153,100 -100,100 -55.22847,0 -100,-44.77153 -100,-100 0,-55.22847 44.77153,-100 100,-100 55.22847,0 100,44.77153 100,100 z"
           stroke-opacity="0.8"
           stroke-linecap="round"
           stroke-linejoin="round"
           stroke-miterlimit="10"
           stroke-width="2.5"
           id="path104" />
        <text
           fill="#616161"
           stroke="none"
           x="530"
           y="375"
           id="text106">K</text>
        <text
           fill="none"
           stroke="#ffffff"
           x="530"
           y="375"
           stroke-opacity="1"
           stroke-linejoin="bevel"
           stroke-miterlimit="10"
           stroke-width="3"
           id="text108">K</text>
        <text
           fill="#616161"
           stroke="none"
           x="530"
           y="375"
           id="text110">K</text>
        <path
           fill="none"
           stroke="#616161"
           d="M -5,452.5 H 1081"
           stroke-opacity="0.8"
           stroke-linecap="round"
           stroke-linejoin="round"
           stroke-miterlimit="10"
           stroke-width="0.5"
           id="path112" />
        <path
           fill="none"
           stroke="#616161"
           d="M 412,452.5 H 512"
           stroke-opacity="0.8"
           stroke-linejoin="round"
           stroke-miterlimit="10"
           stroke-width="2.5"
           stroke-dasharray="10.5, 8"
           id="path114" />
        <path
           fill="none"
           stroke="#616161"
           d="m 412,452.5 50,-86.60254"
           stroke-opacity="0.8"
           stroke-linejoin="round"
           stroke-miterlimit="10"
           stroke-width="2.5"
           stroke-dasharray="10.5, 8"
           id="path116" />
        <path
           fill="none"
           stroke="#616161"
           d="M 512,452.5 462,365.89746"
           stroke-opacity="0.8"
           stroke-linejoin="round"
           stroke-miterlimit="10"
           stroke-width="2.5"
           stroke-dasharray="10.5, 8"
           id="path118" />
        <path
           fill="#1565c0"
           stroke="none"
           paint-order="stroke fill markers"
           d="m 417,452.5 c 0,2.76142 -2.23858,5 -5,5 -2.76142,0 -5,-2.23858 -5,-5 0,-2.76142 2.23858,-5 5,-5 2.76142,0 5,2.23858 5,5 z"
           id="path120" />
        <path
           fill="none"
           stroke="#000000"
           d="m 417,452.5 c 0,2.76142 -2.23858,5 -5,5 -2.76142,0 -5,-2.23858 -5,-5 0,-2.76142 2.23858,-5 5,-5 2.76142,0 5,2.23858 5,5 z"
           stroke-opacity="1"
           stroke-linecap="round"
           stroke-linejoin="round"
           stroke-miterlimit="10"
           id="path122" />
        <text
           fill="#1565c0"
           stroke="none"
           x="392"
           y="444"
           id="text124">A</text>
        <text
           fill="none"
           stroke="#ffffff"
           x="392"
           y="444"
           stroke-opacity="1"
           stroke-linejoin="bevel"
           stroke-miterlimit="10"
           stroke-width="3"
           id="text126">A</text>
        <text
           fill="#1565c0"
           stroke="none"
           x="392"
           y="444"
           id="text128">A</text>
        <path
           fill="#1565c0"
           stroke="none"
           paint-order="stroke fill markers"
           d="m 517,452.5 c 0,2.76142 -2.23858,5 -5,5 -2.76142,0 -5,-2.23858 -5,-5 0,-2.76142 2.23858,-5 5,-5 2.76142,0 5,2.23858 5,5 z"
           id="path130" />
        <path
           fill="none"
           stroke="#000000"
           d="m 517,452.5 c 0,2.76142 -2.23858,5 -5,5 -2.76142,0 -5,-2.23858 -5,-5 0,-2.76142 2.23858,-5 5,-5 2.76142,0 5,2.23858 5,5 z"
           stroke-opacity="1"
           stroke-linecap="round"
           stroke-linejoin="round"
           stroke-miterlimit="10"
           id="path132" />
        <text
           fill="#1565c0"
           stroke="none"
           x="522"
           y="445"
           id="text134">B</text>
        <text
           fill="none"
           stroke="#ffffff"
           x="522"
           y="445"
           stroke-opacity="1"
           stroke-linejoin="bevel"
           stroke-miterlimit="10"
           stroke-width="3"
           id="text136">B</text>
        <text
           fill="#1565c0"
           stroke="none"
           x="522"
           y="445"
           id="text138">B</text>
        <path
           fill="#616161"
           stroke="none"
           paint-order="stroke fill markers"
           d="m 516,452.5 c 0,2.20914 -1.79086,4 -4,4 -2.20914,0 -4,-1.79086 -4,-4 0,-2.20914 1.79086,-4 4,-4 2.20914,0 4,1.79086 4,4 z"
           id="path140" />
        <path
           fill="none"
           stroke="#000000"
           d="m 516,452.5 c 0,2.20914 -1.79086,4 -4,4 -2.20914,0 -4,-1.79086 -4,-4 0,-2.20914 1.79086,-4 4,-4 2.20914,0 4,1.79086 4,4 z"
           stroke-opacity="1"
           stroke-linecap="round"
           stroke-linejoin="round"
           stroke-miterlimit="10"
           id="path142" />
        <path
           fill="#616161"
           stroke="none"
           paint-order="stroke fill markers"
           d="m 316,452.5 c 0,2.20914 -1.79086,4 -4,4 -2.20914,0 -4,-1.79086 -4,-4 0,-2.20914 1.79086,-4 4,-4 2.20914,0 4,1.79086 4,4 z"
           id="path144" />
        <path
           fill="none"
           stroke="#000000"
           d="m 316,452.5 c 0,2.20914 -1.79086,4 -4,4 -2.20914,0 -4,-1.79086 -4,-4 0,-2.20914 1.79086,-4 4,-4 2.20914,0 4,1.79086 4,4 z"
           stroke-opacity="1"
           stroke-linecap="round"
           stroke-linejoin="round"
           stroke-miterlimit="10"
           id="path146" />
        <text
           fill="#616161"
           stroke="none"
           x="316"
           y="444"
           id="text148">D</text>
        <text
           fill="none"
           stroke="#ffffff"
           x="316"
           y="444"
           stroke-opacity="1"
           stroke-linejoin="bevel"
           stroke-miterlimit="10"
           stroke-width="3"
           id="text150">D</text>
        <text
           fill="#616161"
           stroke="none"
           x="316"
           y="444"
           id="text152">D</text>
        <path
           fill="#616161"
           stroke="none"
           paint-order="stroke fill markers"
           d="m 466,365.89746 c 0,2.20914 -1.79086,4 -4,4 -2.20914,0 -4,-1.79086 -4,-4 0,-2.20914 1.79086,-4 4,-4 2.20914,0 4,1.79086 4,4 z"
           id="path154" />
        <path
           fill="none"
           stroke="#000000"
           d="m 466,365.89746 c 0,2.20914 -1.79086,4 -4,4 -2.20914,0 -4,-1.79086 -4,-4 0,-2.20914 1.79086,-4 4,-4 2.20914,0 4,1.79086 4,4 z"
           stroke-opacity="1"
           stroke-linecap="round"
           stroke-linejoin="round"
           stroke-miterlimit="10"
           id="path156" />
        <text
           fill="#616161"
           stroke="none"
           x="457"
           y="347"
           id="text158">C</text>
        <text
           fill="none"
           stroke="#ffffff"
           x="457"
           y="347"
           stroke-opacity="1"
           stroke-linejoin="bevel"
           stroke-miterlimit="10"
           stroke-width="3"
           id="text160">C</text>
        <text
           fill="#616161"
           stroke="none"
           x="457"
           y="347"
           id="text162">C</text>
        <path
           fill="#616161"
           stroke="none"
           paint-order="stroke fill markers"
           d="m 466,539.10254 c 0,2.20914 -1.79086,4 -4,4 -2.20914,0 -4,-1.79086 -4,-4 0,-2.20914 1.79086,-4 4,-4 2.20914,0 4,1.79086 4,4 z"
           id="path164" />
        <path
           fill="none"
           stroke="#000000"
           d="m 466,539.10254 c 0,2.20914 -1.79086,4 -4,4 -2.20914,0 -4,-1.79086 -4,-4 0,-2.20914 1.79086,-4 4,-4 2.20914,0 4,1.79086 4,4 z"
           stroke-opacity="1"
           stroke-linecap="round"
           stroke-linejoin="round"
           stroke-miterlimit="10"
           id="path166" />
      </g>
    </g>
  </g>
</svg>
