<?xml version="1.0" encoding="UTF-8" standalone="no"?>
<svg
   version="1.1"
   width="550"
   height="550"
   id="svg176"
   xmlns="http://www.w3.org/2000/svg"
   xmlns:svg="http://www.w3.org/2000/svg">
  <defs
     id="defs94">
    <clipPath
       id="IsOhUrPlfIUi">
      <path
         fill="none"
         stroke="none"
         d="M 0,0 H 1848 V 905 H 0 Z"
         id="path91" />
    </clipPath>
    <clipPath
       clipPathUnits="userSpaceOnUse"
       id="clipPath448">
      <rect
         style="fill:#000000"
         id="rect450"
         width="550.87561"
         height="550.87561"
         x="498.77612"
         y="249.77115" />
    </clipPath>
  </defs>
  <g
     id="g440"
     clip-path="url(#clipPath448)"
     transform="translate(-498.77612,-249.77115)">
    <g
       clip-path="url(#IsOhUrPlfIUi)"
       id="g174">
      <g
         id="g172">
        <rect
           fill="#ffffff"
           stroke="none"
           x="0"
           y="0"
           width="1848"
           height="905"
           id="rect96" />
        <path
           fill="none"
           stroke="#2e7d32"
           d="M 769.5,420.5 943.60254,318.94555"
           stroke-opacity="0.8"
           stroke-linecap="round"
           stroke-linejoin="round"
           stroke-miterlimit="10"
           stroke-width="2.5"
           id="path98" />
        <path
           fill="none"
           stroke="#2e7d32"
           d="M 943.60254,318.94555 944.5,520.5"
           stroke-opacity="0.8"
           stroke-linecap="round"
           stroke-linejoin="round"
           stroke-miterlimit="10"
           stroke-width="2.5"
           id="path100" />
        <path
           fill="none"
           stroke="#1565c0"
           d="M 595.39746,522.05445 944.5,520.5"
           stroke-opacity="0.8"
           stroke-linecap="round"
           stroke-linejoin="round"
           stroke-miterlimit="10"
           stroke-width="2.5"
           id="path102" />
        <path
           fill="none"
           stroke="#2e7d32"
           d="M 769.5,420.5 595.39746,522.05445"
           stroke-opacity="0.8"
           stroke-linecap="round"
           stroke-linejoin="round"
           stroke-miterlimit="10"
           stroke-width="2.5"
           id="path104" />
        <path
           fill="none"
           stroke="#2e7d32"
           d="M 945.39746,722.05445 944.5,520.5"
           stroke-opacity="0.8"
           stroke-linecap="round"
           stroke-linejoin="round"
           stroke-miterlimit="10"
           stroke-width="2.5"
           id="path106" />
        <path
           fill="none"
           stroke="#1565c0"
           d="M 945.39746,722.05445 769.5,420.5"
           stroke-opacity="0.8"
           stroke-linecap="round"
           stroke-linejoin="round"
           stroke-miterlimit="10"
           stroke-width="2.5"
           id="path108" />
        <path
           fill="none"
           stroke="#2e7d32"
           d="m 769.5,420.5 175,100"
           stroke-opacity="0.8"
           stroke-linecap="round"
           stroke-linejoin="round"
           stroke-miterlimit="10"
           stroke-width="0.5"
           id="path110" />
        <path
           fill="#1565c0"
           stroke="none"
           paint-order="stroke fill markers"
           d="m 949.5,520.5 c 0,2.76142 -2.23858,5 -5,5 -2.76142,0 -5,-2.23858 -5,-5 0,-2.76142 2.23858,-5 5,-5 2.76142,0 5,2.23858 5,5 z"
           id="path112" />
        <path
           fill="none"
           stroke="#000000"
           d="m 949.5,520.5 c 0,2.76142 -2.23858,5 -5,5 -2.76142,0 -5,-2.23858 -5,-5 0,-2.76142 2.23858,-5 5,-5 2.76142,0 5,2.23858 5,5 z"
           stroke-opacity="1"
           stroke-linecap="round"
           stroke-linejoin="round"
           stroke-miterlimit="10"
           id="path114" />
        <text
           fill="#1565c0"
           stroke="none"
           x="948"
           y="511"
           id="text116">A</text>
        <text
           fill="none"
           stroke="#ffffff"
           x="948"
           y="511"
           stroke-opacity="1"
           stroke-linejoin="bevel"
           stroke-miterlimit="10"
           stroke-width="3"
           id="text118">A</text>
        <text
           fill="#1565c0"
           stroke="none"
           x="948"
           y="511"
           id="text120">A</text>
        <path
           fill="#1565c0"
           stroke="none"
           paint-order="stroke fill markers"
           d="m 774.5,420.5 c 0,2.76142 -2.23858,5 -5,5 -2.76142,0 -5,-2.23858 -5,-5 0,-2.76142 2.23858,-5 5,-5 2.76142,0 5,2.23858 5,5 z"
           id="path122" />
        <path
           fill="none"
           stroke="#000000"
           d="m 774.5,420.5 c 0,2.76142 -2.23858,5 -5,5 -2.76142,0 -5,-2.23858 -5,-5 0,-2.76142 2.23858,-5 5,-5 2.76142,0 5,2.23858 5,5 z"
           stroke-opacity="1"
           stroke-linecap="round"
           stroke-linejoin="round"
           stroke-miterlimit="10"
           id="path124" />
        <text
           fill="#1565c0"
           stroke="none"
           x="747"
           y="411"
           id="text126">B</text>
        <text
           fill="none"
           stroke="#ffffff"
           x="747"
           y="411"
           stroke-opacity="1"
           stroke-linejoin="bevel"
           stroke-miterlimit="10"
           stroke-width="3"
           id="text128">B</text>
        <text
           fill="#1565c0"
           stroke="none"
           x="747"
           y="411"
           id="text130">B</text>
        <path
           fill="#616161"
           stroke="none"
           paint-order="stroke fill markers"
           d="m 947.60254,318.94555 c 0,2.20914 -1.79086,4 -4,4 -2.20914,0 -4,-1.79086 -4,-4 0,-2.20913 1.79086,-4 4,-4 2.20914,0 4,1.79087 4,4 z"
           id="path132" />
        <path
           fill="none"
           stroke="#000000"
           d="m 947.60254,318.94555 c 0,2.20914 -1.79086,4 -4,4 -2.20914,0 -4,-1.79086 -4,-4 0,-2.20913 1.79086,-4 4,-4 2.20914,0 4,1.79087 4,4 z"
           stroke-opacity="1"
           stroke-linecap="round"
           stroke-linejoin="round"
           stroke-miterlimit="10"
           id="path134" />
        <text
           fill="#616161"
           stroke="none"
           x="921"
           y="309"
           id="text136">C</text>
        <text
           fill="none"
           stroke="#ffffff"
           x="921"
           y="309"
           stroke-opacity="1"
           stroke-linejoin="bevel"
           stroke-miterlimit="10"
           stroke-width="3"
           id="text138">C</text>
        <text
           fill="#616161"
           stroke="none"
           x="921"
           y="309"
           id="text140">C</text>
        <path
           fill="#616161"
           stroke="none"
           paint-order="stroke fill markers"
           d="m 599.39746,522.05445 c 0,2.20913 -1.79086,4 -4,4 -2.20914,0 -4,-1.79087 -4,-4 0,-2.20914 1.79086,-4 4,-4 2.20914,0 4,1.79086 4,4 z"
           id="path142" />
        <path
           fill="none"
           stroke="#000000"
           d="m 599.39746,522.05445 c 0,2.20913 -1.79086,4 -4,4 -2.20914,0 -4,-1.79087 -4,-4 0,-2.20914 1.79086,-4 4,-4 2.20914,0 4,1.79086 4,4 z"
           stroke-opacity="1"
           stroke-linecap="round"
           stroke-linejoin="round"
           stroke-miterlimit="10"
           id="path144" />
        <text
           fill="#616161"
           stroke="none"
           x="562"
           y="517"
           id="text146">D</text>
        <text
           fill="none"
           stroke="#ffffff"
           x="562"
           y="517"
           stroke-opacity="1"
           stroke-linejoin="bevel"
           stroke-miterlimit="10"
           stroke-width="3"
           id="text148">D</text>
        <text
           fill="#616161"
           stroke="none"
           x="562"
           y="517"
           id="text150">D</text>
        <path
           fill="#616161"
           stroke="none"
           paint-order="stroke fill markers"
           d="m 949.39746,722.05445 c 0,2.20913 -1.79086,4 -4,4 -2.20914,0 -4,-1.79087 -4,-4 0,-2.20914 1.79086,-4 4,-4 2.20914,0 4,1.79086 4,4 z"
           id="path152" />
        <path
           fill="none"
           stroke="#000000"
           d="m 949.39746,722.05445 c 0,2.20913 -1.79086,4 -4,4 -2.20914,0 -4,-1.79087 -4,-4 0,-2.20914 1.79086,-4 4,-4 2.20914,0 4,1.79086 4,4 z"
           stroke-opacity="1"
           stroke-linecap="round"
           stroke-linejoin="round"
           stroke-miterlimit="10"
           id="path154" />
        <text
           fill="#616161"
           stroke="none"
           x="949"
           y="714"
           id="text156">E</text>
        <text
           fill="none"
           stroke="#ffffff"
           x="949"
           y="714"
           stroke-opacity="1"
           stroke-linejoin="bevel"
           stroke-miterlimit="10"
           stroke-width="3"
           id="text158">E</text>
        <text
           fill="#616161"
           stroke="none"
           x="949"
           y="714"
           id="text160">E</text>
        <path
           fill="#616161"
           stroke="none"
           paint-order="stroke fill markers"
           d="m 832.13249,521.01815 c 0,2.20914 -1.79086,4 -4,4 -2.20914,0 -4,-1.79086 -4,-4 0,-2.20914 1.79086,-4 4,-4 2.20914,0 4,1.79086 4,4 z"
           id="path162" />
        <path
           fill="none"
           stroke="#000000"
           d="m 832.13249,521.01815 c 0,2.20914 -1.79086,4 -4,4 -2.20914,0 -4,-1.79086 -4,-4 0,-2.20914 1.79086,-4 4,-4 2.20914,0 4,1.79086 4,4 z"
           stroke-opacity="1"
           stroke-linecap="round"
           stroke-linejoin="round"
           stroke-miterlimit="10"
           id="path164" />
        <text
           fill="#616161"
           stroke="none"
           x="832"
           y="513"
           id="text166">F</text>
        <text
           fill="none"
           stroke="#ffffff"
           x="832"
           y="513"
           stroke-opacity="1"
           stroke-linejoin="bevel"
           stroke-miterlimit="10"
           stroke-width="3"
           id="text168">F</text>
        <text
           fill="#616161"
           stroke="none"
           x="832"
           y="513"
           id="text170">F</text>
      </g>
    </g>
  </g>
</svg>
