<?xml version="1.0" encoding="UTF-8" standalone="no"?>
<svg
   version="1.1"
   width="600"
   height="300"
   id="svg304"
   xmlns="http://www.w3.org/2000/svg"
   xmlns:svg="http://www.w3.org/2000/svg">
  <defs
     id="defs158">
    <clipPath
       id="HvLSbzuBdzTE">
      <path
         fill="none"
         stroke="none"
         d="M 0,0 H 1524 V 905 H 0 Z"
         id="path155" />
    </clipPath>
    <clipPath
       clipPathUnits="userSpaceOnUse"
       id="clipPath551">
      <rect
         style="fill:#000000"
         id="rect553"
         width="600.02411"
         height="300.68222"
         x="349.82788"
         y="149.67093" />
    </clipPath>
  </defs>
  <g
     id="g484"
     clip-path="url(#clipPath551)"
     transform="translate(-349.82788,-149.67093)">
    <g
       clip-path="url(#HvLSbzuBdzTE)"
       id="g302">
      <g
         id="g300">
        <rect
           fill="#ffffff"
           stroke="none"
           x="0"
           y="0"
           width="1524"
           height="905"
           id="rect160" />
        <path
           fill="#1565c0"
           stroke="none"
           paint-order="stroke fill markers"
           d="m 590.7868,281.2868 c -9.13081,9.1308 -11.39445,23.07995 -5.61962,34.62961 L 612,302.5 Z"
           fill-opacity="0.0980392"
           id="path162" />
        <path
           fill="none"
           stroke="#1565c0"
           d="m 590.7868,281.2868 c -9.13081,9.1308 -11.39445,23.07995 -5.61962,34.62961 L 612,302.5 Z"
           stroke-opacity="0.6"
           stroke-linecap="round"
           stroke-linejoin="round"
           stroke-miterlimit="10"
           stroke-width="2"
           id="path164" />
        <text
           fill="#1565c0"
           stroke="none"
           x="539"
           y="299"
           id="text166">BEA</text>
        <text
           fill="none"
           stroke="#ffffff"
           x="539"
           y="299"
           stroke-opacity="1"
           stroke-linejoin="bevel"
           stroke-miterlimit="10"
           stroke-width="3"
           id="text168">BEA</text>
        <text
           fill="#1565c0"
           stroke="none"
           x="539"
           y="299"
           id="text170">BEA</text>
        <path
           fill="#1565c0"
           stroke="none"
           paint-order="stroke fill markers"
           d="m 633.2132,323.7132 c 9.13081,-9.1308 11.39445,-23.07995 5.61962,-34.62961 L 612,302.5 Z"
           fill-opacity="0.0980392"
           id="path172" />
        <path
           fill="none"
           stroke="#1565c0"
           d="m 633.2132,323.7132 c 9.13081,-9.1308 11.39445,-23.07995 5.61962,-34.62961 L 612,302.5 Z"
           stroke-opacity="0.6"
           stroke-linecap="round"
           stroke-linejoin="round"
           stroke-miterlimit="10"
           stroke-width="2"
           id="path174" />
        <text
           fill="#1565c0"
           stroke="none"
           x="650"
           y="304"
           id="text176">CEF</text>
        <text
           fill="none"
           stroke="#ffffff"
           x="650"
           y="304"
           stroke-opacity="1"
           stroke-linejoin="bevel"
           stroke-miterlimit="10"
           stroke-width="3"
           id="text178">CEF</text>
        <text
           fill="#1565c0"
           stroke="none"
           x="650"
           y="304"
           id="text180">CEF</text>
        <path
           fill="#d32f2f"
           stroke="none"
           paint-order="stroke fill markers"
           d="m 498.58359,229.33282 c 11.54966,5.77483 25.49881,3.51119 34.62961,-5.61962 L 512,202.5 Z"
           fill-opacity="0.0980392"
           id="path182" />
        <path
           fill="none"
           stroke="#d32f2f"
           d="m 498.58359,229.33282 c 11.54966,5.77483 25.49881,3.51119 34.62961,-5.61962 L 512,202.5 Z"
           stroke-opacity="0.6"
           stroke-linecap="round"
           stroke-linejoin="round"
           stroke-miterlimit="10"
           stroke-width="2"
           id="path184" />
        <text
           fill="#d32f2f"
           stroke="none"
           x="505"
           y="252"
           id="text186">BAC</text>
        <text
           fill="none"
           stroke="#ffffff"
           x="505"
           y="252"
           stroke-opacity="1"
           stroke-linejoin="bevel"
           stroke-miterlimit="10"
           stroke-width="3"
           id="text188">BAC</text>
        <text
           fill="#d32f2f"
           stroke="none"
           x="505"
           y="252"
           id="text190">BAC</text>
        <path
           fill="#d32f2f"
           stroke="none"
           paint-order="stroke fill markers"
           d="m 725.41641,375.66718 c -11.54966,-5.77483 -25.49881,-3.51119 -34.62961,5.61962 L 712,402.5 Z"
           fill-opacity="0.0980392"
           id="path192" />
        <path
           fill="none"
           stroke="#d32f2f"
           d="m 725.41641,375.66718 c -11.54966,-5.77483 -25.49881,-3.51119 -34.62961,5.61962 L 712,402.5 Z"
           stroke-opacity="0.6"
           stroke-linecap="round"
           stroke-linejoin="round"
           stroke-miterlimit="10"
           stroke-width="2"
           id="path194" />
        <text
           fill="#d32f2f"
           stroke="none"
           x="685"
           y="362"
           id="text196">ACH</text>
        <text
           fill="none"
           stroke="#ffffff"
           x="685"
           y="362"
           stroke-opacity="1"
           stroke-linejoin="bevel"
           stroke-miterlimit="10"
           stroke-width="3"
           id="text198">ACH</text>
        <text
           fill="#d32f2f"
           stroke="none"
           x="685"
           y="362"
           id="text200">ACH</text>
        <path
           fill="#2e7d32"
           stroke="none"
           paint-order="stroke fill markers"
           d="m 742,402.5 c 0,-12.13387 -7.30927,-23.07296 -18.5195,-27.71639 -11.21023,-4.64343 -24.11376,-2.07675 -32.6937,6.50319 L 712,402.5 Z"
           fill-opacity="0.0980392"
           id="path202" />
        <path
           fill="none"
           stroke="#2e7d32"
           d="m 742,402.5 c 0,-12.13387 -7.30927,-23.07296 -18.5195,-27.71639 -11.21023,-4.64343 -24.11376,-2.07675 -32.6937,6.50319 L 712,402.5 Z"
           stroke-opacity="0.6"
           stroke-linecap="round"
           stroke-linejoin="round"
           stroke-miterlimit="10"
           stroke-width="2"
           id="path204" />
        <text
           fill="#2e7d32"
           stroke="none"
           x="741"
           y="389"
           id="text206">ACD</text>
        <text
           fill="none"
           stroke="#ffffff"
           x="741"
           y="389"
           stroke-opacity="1"
           stroke-linejoin="bevel"
           stroke-miterlimit="10"
           stroke-width="3"
           id="text208">ACD</text>
        <text
           fill="#2e7d32"
           stroke="none"
           x="741"
           y="389"
           id="text210">ACD</text>
        <path
           fill="none"
           stroke="#616161"
           d="m 412,402.5 100,-200"
           stroke-opacity="0.8"
           stroke-linecap="round"
           stroke-linejoin="round"
           stroke-miterlimit="10"
           stroke-width="2.5"
           id="path212" />
        <path
           fill="none"
           stroke="#616161"
           d="M 712,402.5 H 892"
           stroke-opacity="0.8"
           stroke-linecap="round"
           stroke-linejoin="round"
           stroke-miterlimit="10"
           stroke-width="2.5"
           id="path214" />
        <path
           fill="none"
           stroke="#616161"
           d="M 412,402.5 H 712"
           stroke-opacity="0.8"
           stroke-linecap="round"
           stroke-linejoin="round"
           stroke-miterlimit="10"
           stroke-width="2.5"
           id="path216" />
        <path
           fill="none"
           stroke="#1565c0"
           d="m 412,402.5 200,-100"
           stroke-opacity="0.8"
           stroke-linecap="round"
           stroke-linejoin="round"
           stroke-miterlimit="10"
           stroke-width="2.5"
           id="path218" />
        <path
           fill="none"
           stroke="#1565c0"
           d="m 612,302.5 200,-100"
           stroke-opacity="0.8"
           stroke-linecap="round"
           stroke-linejoin="round"
           stroke-miterlimit="10"
           stroke-width="2.5"
           id="path220" />
        <path
           fill="none"
           stroke="#616161"
           d="m 712,402.5 100,-200"
           stroke-opacity="0.8"
           stroke-linecap="round"
           stroke-linejoin="round"
           stroke-miterlimit="10"
           stroke-width="2.5"
           id="path222" />
        <path
           fill="none"
           stroke="#d32f2f"
           d="m 512,202.5 100,100"
           stroke-opacity="0.8"
           stroke-linecap="round"
           stroke-linejoin="round"
           stroke-miterlimit="10"
           stroke-width="2.5"
           id="path224" />
        <path
           fill="none"
           stroke="#d32f2f"
           d="m 612,302.5 100,100"
           stroke-opacity="0.8"
           stroke-linecap="round"
           stroke-linejoin="round"
           stroke-miterlimit="10"
           stroke-width="2.5"
           id="path226" />
        <path
           fill="none"
           stroke="#616161"
           d="M 892,402.5 612,302.5"
           stroke-opacity="0.8"
           stroke-linecap="round"
           stroke-linejoin="round"
           stroke-miterlimit="10"
           stroke-width="2.5"
           id="path228" />
        <path
           fill="#1565c0"
           stroke="none"
           paint-order="stroke fill markers"
           d="m 517,202.5 c 0,2.76142 -2.23858,5 -5,5 -2.76142,0 -5,-2.23858 -5,-5 0,-2.76142 2.23858,-5 5,-5 2.76142,0 5,2.23858 5,5 z"
           id="path230" />
        <path
           fill="none"
           stroke="#000000"
           d="m 517,202.5 c 0,2.76142 -2.23858,5 -5,5 -2.76142,0 -5,-2.23858 -5,-5 0,-2.76142 2.23858,-5 5,-5 2.76142,0 5,2.23858 5,5 z"
           stroke-opacity="1"
           stroke-linecap="round"
           stroke-linejoin="round"
           stroke-miterlimit="10"
           id="path232" />
        <text
           fill="#1565c0"
           stroke="none"
           x="532"
           y="191"
           id="text234">A</text>
        <text
           fill="none"
           stroke="#ffffff"
           x="532"
           y="191"
           stroke-opacity="1"
           stroke-linejoin="bevel"
           stroke-miterlimit="10"
           stroke-width="3"
           id="text236">A</text>
        <text
           fill="#1565c0"
           stroke="none"
           x="532"
           y="191"
           id="text238">A</text>
        <path
           fill="#1565c0"
           stroke="none"
           paint-order="stroke fill markers"
           d="m 417,402.5 c 0,2.76142 -2.23858,5 -5,5 -2.76142,0 -5,-2.23858 -5,-5 0,-2.76142 2.23858,-5 5,-5 2.76142,0 5,2.23858 5,5 z"
           id="path240" />
        <path
           fill="none"
           stroke="#000000"
           d="m 417,402.5 c 0,2.76142 -2.23858,5 -5,5 -2.76142,0 -5,-2.23858 -5,-5 0,-2.76142 2.23858,-5 5,-5 2.76142,0 5,2.23858 5,5 z"
           stroke-opacity="1"
           stroke-linecap="round"
           stroke-linejoin="round"
           stroke-miterlimit="10"
           id="path242" />
        <text
           fill="#1565c0"
           stroke="none"
           x="382"
           y="389"
           id="text244">B</text>
        <text
           fill="none"
           stroke="#ffffff"
           x="382"
           y="389"
           stroke-opacity="1"
           stroke-linejoin="bevel"
           stroke-miterlimit="10"
           stroke-width="3"
           id="text246">B</text>
        <text
           fill="#1565c0"
           stroke="none"
           x="382"
           y="389"
           id="text248">B</text>
        <path
           fill="#1565c0"
           stroke="none"
           paint-order="stroke fill markers"
           d="m 717,402.5 c 0,2.76142 -2.23858,5 -5,5 -2.76142,0 -5,-2.23858 -5,-5 0,-2.76142 2.23858,-5 5,-5 2.76142,0 5,2.23858 5,5 z"
           id="path250" />
        <path
           fill="none"
           stroke="#000000"
           d="m 717,402.5 c 0,2.76142 -2.23858,5 -5,5 -2.76142,0 -5,-2.23858 -5,-5 0,-2.76142 2.23858,-5 5,-5 2.76142,0 5,2.23858 5,5 z"
           stroke-opacity="1"
           stroke-linecap="round"
           stroke-linejoin="round"
           stroke-miterlimit="10"
           id="path252" />
        <text
           fill="#1565c0"
           stroke="none"
           x="724"
           y="423"
           id="text254">C</text>
        <text
           fill="none"
           stroke="#ffffff"
           x="724"
           y="423"
           stroke-opacity="1"
           stroke-linejoin="bevel"
           stroke-miterlimit="10"
           stroke-width="3"
           id="text256">C</text>
        <text
           fill="#1565c0"
           stroke="none"
           x="724"
           y="423"
           id="text258">C</text>
        <path
           fill="#1565c0"
           stroke="none"
           paint-order="stroke fill markers"
           d="m 897,402.5 c 0,2.76142 -2.23858,5 -5,5 -2.76142,0 -5,-2.23858 -5,-5 0,-2.76142 2.23858,-5 5,-5 2.76142,0 5,2.23858 5,5 z"
           id="path260" />
        <path
           fill="none"
           stroke="#000000"
           d="m 897,402.5 c 0,2.76142 -2.23858,5 -5,5 -2.76142,0 -5,-2.23858 -5,-5 0,-2.76142 2.23858,-5 5,-5 2.76142,0 5,2.23858 5,5 z"
           stroke-opacity="1"
           stroke-linecap="round"
           stroke-linejoin="round"
           stroke-miterlimit="10"
           id="path262" />
        <text
           fill="#1565c0"
           stroke="none"
           x="896"
           y="393"
           id="text264">D</text>
        <text
           fill="none"
           stroke="#ffffff"
           x="896"
           y="393"
           stroke-opacity="1"
           stroke-linejoin="bevel"
           stroke-miterlimit="10"
           stroke-width="3"
           id="text266">D</text>
        <text
           fill="#1565c0"
           stroke="none"
           x="896"
           y="393"
           id="text268">D</text>
        <path
           fill="#616161"
           stroke="none"
           paint-order="stroke fill markers"
           d="m 616,302.5 c 0,2.20914 -1.79086,4 -4,4 -2.20914,0 -4,-1.79086 -4,-4 0,-2.20914 1.79086,-4 4,-4 2.20914,0 4,1.79086 4,4 z"
           id="path270" />
        <path
           fill="none"
           stroke="#000000"
           d="m 616,302.5 c 0,2.20914 -1.79086,4 -4,4 -2.20914,0 -4,-1.79086 -4,-4 0,-2.20914 1.79086,-4 4,-4 2.20914,0 4,1.79086 4,4 z"
           stroke-opacity="1"
           stroke-linecap="round"
           stroke-linejoin="round"
           stroke-miterlimit="10"
           id="path272" />
        <text
           fill="#616161"
           stroke="none"
           x="614"
           y="285"
           id="text274">E</text>
        <text
           fill="none"
           stroke="#ffffff"
           x="614"
           y="285"
           stroke-opacity="1"
           stroke-linejoin="bevel"
           stroke-miterlimit="10"
           stroke-width="3"
           id="text276">E</text>
        <text
           fill="#616161"
           stroke="none"
           x="614"
           y="285"
           id="text278">E</text>
        <path
           fill="#616161"
           stroke="none"
           paint-order="stroke fill markers"
           d="m 816,202.5 c 0,2.20914 -1.79086,4 -4,4 -2.20914,0 -4,-1.79086 -4,-4 0,-2.20914 1.79086,-4 4,-4 2.20914,0 4,1.79086 4,4 z"
           id="path280" />
        <path
           fill="none"
           stroke="#000000"
           d="m 816,202.5 c 0,2.20914 -1.79086,4 -4,4 -2.20914,0 -4,-1.79086 -4,-4 0,-2.20914 1.79086,-4 4,-4 2.20914,0 4,1.79086 4,4 z"
           stroke-opacity="1"
           stroke-linecap="round"
           stroke-linejoin="round"
           stroke-miterlimit="10"
           id="path282" />
        <text
           fill="#616161"
           stroke="none"
           x="816"
           y="195"
           id="text284">F</text>
        <text
           fill="none"
           stroke="#ffffff"
           x="816"
           y="195"
           stroke-opacity="1"
           stroke-linejoin="bevel"
           stroke-miterlimit="10"
           stroke-width="3"
           id="text286">F</text>
        <text
           fill="#616161"
           stroke="none"
           x="816"
           y="195"
           id="text288">F</text>
        <path
           fill="#616161"
           stroke="none"
           paint-order="stroke fill markers"
           d="m 743.27273,347.95455 c 0,2.20913 -1.79086,4 -4,4 -2.20914,0 -4,-1.79087 -4,-4 0,-2.20914 1.79086,-4 4,-4 2.20914,0 4,1.79086 4,4 z"
           id="path290" />
        <path
           fill="none"
           stroke="#000000"
           d="m 743.27273,347.95455 c 0,2.20913 -1.79086,4 -4,4 -2.20914,0 -4,-1.79087 -4,-4 0,-2.20914 1.79086,-4 4,-4 2.20914,0 4,1.79086 4,4 z"
           stroke-opacity="1"
           stroke-linecap="round"
           stroke-linejoin="round"
           stroke-miterlimit="10"
           id="path292" />
        <text
           fill="#616161"
           stroke="none"
           x="729"
           y="326"
           id="text294">H</text>
        <text
           fill="none"
           stroke="#ffffff"
           x="729"
           y="326"
           stroke-opacity="1"
           stroke-linejoin="bevel"
           stroke-miterlimit="10"
           stroke-width="3"
           id="text296">H</text>
        <text
           fill="#616161"
           stroke="none"
           x="729"
           y="326"
           id="text298">H</text>
      </g>
    </g>
  </g>
</svg>
